ISO-10303-21;
HEADER;
/* Generated by software containing ST-Developer
 * from STEP Tools, Inc. (www.steptools.com) 
 */

FILE_DESCRIPTION(
/* description */ (''),
/* implementation_level */ '2;1');

FILE_NAME(
/* name */ 'backrest_shell.step',
/* time_stamp */ '2026-08-14T19:13:42+09:00',
/* author */ (''),
/* organization */ (''),
/* preprocessor_version */ 'ST-DEVELOPER v20.1',
/* originating_system */ 'Autodesk Translation Framework v15.8.0.0',
/* authorisation */ '');

FILE_SCHEMA (('AUTOMOTIVE_DESIGN { 1 0 10303 214 3 1 1 }'));
ENDSEC;

DATA;
#10=MECHANICAL_DESIGN_GEOMETRIC_PRESENTATION_REPRESENTATION('',(#13),#423);
#11=SHAPE_REPRESENTATION_RELATIONSHIP('SRR','None',#430,#12);
#12=ADVANCED_BREP_SHAPE_REPRESENTATION('',(#251),#422);
#13=STYLED_ITEM('',(#439),#251);
#14=ORIENTED_CLOSED_SHELL('',*,#250,.F.);
#15=FACE_BOUND('',#55,.T.);
#16=FACE_BOUND('',#64,.T.);
#17=PLANE('',#268);
#18=PLANE('',#269);
#19=PLANE('',#270);
#20=PLANE('',#271);
#21=PLANE('',#272);
#22=PLANE('',#273);
#23=PLANE('',#274);
#24=PLANE('',#278);
#25=PLANE('',#279);
#26=PLANE('',#280);
#27=PLANE('',#281);
#28=PLANE('',#282);
#29=PLANE('',#283);
#30=PLANE('',#284);
#31=FACE_OUTER_BOUND('',#47,.T.);
#32=FACE_OUTER_BOUND('',#48,.T.);
#33=FACE_OUTER_BOUND('',#49,.T.);
#34=FACE_OUTER_BOUND('',#50,.T.);
#35=FACE_OUTER_BOUND('',#51,.T.);
#36=FACE_OUTER_BOUND('',#52,.T.);
#37=FACE_OUTER_BOUND('',#53,.T.);
#38=FACE_OUTER_BOUND('',#54,.T.);
#39=FACE_OUTER_BOUND('',#56,.T.);
#40=FACE_OUTER_BOUND('',#57,.T.);
#41=FACE_OUTER_BOUND('',#58,.T.);
#42=FACE_OUTER_BOUND('',#59,.T.);
#43=FACE_OUTER_BOUND('',#60,.T.);
#44=FACE_OUTER_BOUND('',#61,.T.);
#45=FACE_OUTER_BOUND('',#62,.T.);
#46=FACE_OUTER_BOUND('',#63,.T.);
#47=EDGE_LOOP('',(#171,#172,#173,#174));
#48=EDGE_LOOP('',(#175));
#49=EDGE_LOOP('',(#176,#177,#178,#179));
#50=EDGE_LOOP('',(#180,#181,#182,#183));
#51=EDGE_LOOP('',(#184,#185,#186,#187));
#52=EDGE_LOOP('',(#188,#189,#190,#191));
#53=EDGE_LOOP('',(#192,#193,#194,#195));
#54=EDGE_LOOP('',(#196,#197,#198,#199));
#55=EDGE_LOOP('',(#200));
#56=EDGE_LOOP('',(#201,#202,#203,#204));
#57=EDGE_LOOP('',(#205));
#58=EDGE_LOOP('',(#206,#207,#208,#209));
#59=EDGE_LOOP('',(#210,#211,#212,#213));
#60=EDGE_LOOP('',(#214,#215,#216,#217));
#61=EDGE_LOOP('',(#218,#219,#220,#221));
#62=EDGE_LOOP('',(#222,#223,#224,#225));
#63=EDGE_LOOP('',(#226,#227,#228,#229));
#64=EDGE_LOOP('',(#230));
#65=LINE('',#358,#91);
#66=LINE('',#364,#92);
#67=LINE('',#366,#93);
#68=LINE('',#368,#94);
#69=LINE('',#369,#95);
#70=LINE('',#372,#96);
#71=LINE('',#374,#97);
#72=LINE('',#375,#98);
#73=LINE('',#378,#99);
#74=LINE('',#380,#100);
#75=LINE('',#381,#101);
#76=LINE('',#383,#102);
#77=LINE('',#384,#103);
#78=LINE('',#391,#104);
#79=LINE('',#397,#105);
#80=LINE('',#399,#106);
#81=LINE('',#401,#107);
#82=LINE('',#402,#108);
#83=LINE('',#405,#109);
#84=LINE('',#407,#110);
#85=LINE('',#408,#111);
#86=LINE('',#411,#112);
#87=LINE('',#413,#113);
#88=LINE('',#414,#114);
#89=LINE('',#416,#115);
#90=LINE('',#417,#116);
#91=VECTOR('',#291,5.);
#92=VECTOR('',#298,10.);
#93=VECTOR('',#299,10.);
#94=VECTOR('',#300,10.);
#95=VECTOR('',#301,10.);
#96=VECTOR('',#304,10.);
#97=VECTOR('',#305,10.);
#98=VECTOR('',#306,10.);
#99=VECTOR('',#309,10.);
#100=VECTOR('',#310,10.);
#101=VECTOR('',#311,10.);
#102=VECTOR('',#314,10.);
#103=VECTOR('',#315,10.);
#104=VECTOR('',#324,5.);
#105=VECTOR('',#331,10.);
#106=VECTOR('',#332,10.);
#107=VECTOR('',#333,10.);
#108=VECTOR('',#334,10.);
#109=VECTOR('',#337,10.);
#110=VECTOR('',#338,10.);
#111=VECTOR('',#339,10.);
#112=VECTOR('',#342,10.);
#113=VECTOR('',#343,10.);
#114=VECTOR('',#344,10.);
#115=VECTOR('',#347,10.);
#116=VECTOR('',#348,10.);
#117=CIRCLE('',#266,5.);
#118=CIRCLE('',#267,5.);
#119=CIRCLE('',#276,9.);
#120=CIRCLE('',#277,9.);
#121=VERTEX_POINT('',#355);
#122=VERTEX_POINT('',#357);
#123=VERTEX_POINT('',#362);
#124=VERTEX_POINT('',#363);
#125=VERTEX_POINT('',#365);
#126=VERTEX_POINT('',#367);
#127=VERTEX_POINT('',#371);
#128=VERTEX_POINT('',#373);
#129=VERTEX_POINT('',#377);
#130=VERTEX_POINT('',#379);
#131=VERTEX_POINT('',#388);
#132=VERTEX_POINT('',#390);
#133=VERTEX_POINT('',#395);
#134=VERTEX_POINT('',#396);
#135=VERTEX_POINT('',#398);
#136=VERTEX_POINT('',#400);
#137=VERTEX_POINT('',#404);
#138=VERTEX_POINT('',#406);
#139=VERTEX_POINT('',#410);
#140=VERTEX_POINT('',#412);
#141=EDGE_CURVE('',#121,#121,#117,.T.);
#142=EDGE_CURVE('',#121,#122,#65,.T.);
#143=EDGE_CURVE('',#122,#122,#118,.T.);
#144=EDGE_CURVE('',#123,#124,#66,.T.);
#145=EDGE_CURVE('',#123,#125,#67,.T.);
#146=EDGE_CURVE('',#126,#125,#68,.T.);
#147=EDGE_CURVE('',#124,#126,#69,.T.);
#148=EDGE_CURVE('',#124,#127,#70,.T.);
#149=EDGE_CURVE('',#128,#126,#71,.T.);
#150=EDGE_CURVE('',#127,#128,#72,.T.);
#151=EDGE_CURVE('',#127,#129,#73,.T.);
#152=EDGE_CURVE('',#130,#128,#74,.T.);
#153=EDGE_CURVE('',#129,#130,#75,.T.);
#154=EDGE_CURVE('',#129,#123,#76,.T.);
#155=EDGE_CURVE('',#125,#130,#77,.T.);
#156=EDGE_CURVE('',#131,#131,#119,.F.);
#157=EDGE_CURVE('',#131,#132,#78,.T.);
#158=EDGE_CURVE('',#132,#132,#120,.F.);
#159=EDGE_CURVE('',#133,#134,#79,.T.);
#160=EDGE_CURVE('',#134,#135,#80,.F.);
#161=EDGE_CURVE('',#135,#136,#81,.F.);
#162=EDGE_CURVE('',#133,#136,#82,.T.);
#163=EDGE_CURVE('',#134,#137,#83,.T.);
#164=EDGE_CURVE('',#137,#138,#84,.F.);
#165=EDGE_CURVE('',#138,#135,#85,.F.);
#166=EDGE_CURVE('',#137,#139,#86,.T.);
#167=EDGE_CURVE('',#139,#140,#87,.F.);
#168=EDGE_CURVE('',#140,#138,#88,.F.);
#169=EDGE_CURVE('',#139,#133,#89,.T.);
#170=EDGE_CURVE('',#136,#140,#90,.F.);
#171=ORIENTED_EDGE('',*,*,#141,.F.);
#172=ORIENTED_EDGE('',*,*,#142,.T.);
#173=ORIENTED_EDGE('',*,*,#143,.T.);
#174=ORIENTED_EDGE('',*,*,#142,.F.);
#175=ORIENTED_EDGE('',*,*,#143,.F.);
#176=ORIENTED_EDGE('',*,*,#144,.F.);
#177=ORIENTED_EDGE('',*,*,#145,.T.);
#178=ORIENTED_EDGE('',*,*,#146,.F.);
#179=ORIENTED_EDGE('',*,*,#147,.F.);
#180=ORIENTED_EDGE('',*,*,#148,.F.);
#181=ORIENTED_EDGE('',*,*,#147,.T.);
#182=ORIENTED_EDGE('',*,*,#149,.F.);
#183=ORIENTED_EDGE('',*,*,#150,.F.);
#184=ORIENTED_EDGE('',*,*,#151,.F.);
#185=ORIENTED_EDGE('',*,*,#150,.T.);
#186=ORIENTED_EDGE('',*,*,#152,.F.);
#187=ORIENTED_EDGE('',*,*,#153,.F.);
#188=ORIENTED_EDGE('',*,*,#154,.F.);
#189=ORIENTED_EDGE('',*,*,#153,.T.);
#190=ORIENTED_EDGE('',*,*,#155,.F.);
#191=ORIENTED_EDGE('',*,*,#145,.F.);
#192=ORIENTED_EDGE('',*,*,#155,.T.);
#193=ORIENTED_EDGE('',*,*,#152,.T.);
#194=ORIENTED_EDGE('',*,*,#149,.T.);
#195=ORIENTED_EDGE('',*,*,#146,.T.);
#196=ORIENTED_EDGE('',*,*,#154,.T.);
#197=ORIENTED_EDGE('',*,*,#144,.T.);
#198=ORIENTED_EDGE('',*,*,#148,.T.);
#199=ORIENTED_EDGE('',*,*,#151,.T.);
#200=ORIENTED_EDGE('',*,*,#141,.T.);
#201=ORIENTED_EDGE('',*,*,#156,.F.);
#202=ORIENTED_EDGE('',*,*,#157,.T.);
#203=ORIENTED_EDGE('',*,*,#158,.T.);
#204=ORIENTED_EDGE('',*,*,#157,.F.);
#205=ORIENTED_EDGE('',*,*,#156,.T.);
#206=ORIENTED_EDGE('',*,*,#159,.T.);
#207=ORIENTED_EDGE('',*,*,#160,.T.);
#208=ORIENTED_EDGE('',*,*,#161,.T.);
#209=ORIENTED_EDGE('',*,*,#162,.F.);
#210=ORIENTED_EDGE('',*,*,#163,.T.);
#211=ORIENTED_EDGE('',*,*,#164,.T.);
#212=ORIENTED_EDGE('',*,*,#165,.T.);
#213=ORIENTED_EDGE('',*,*,#160,.F.);
#214=ORIENTED_EDGE('',*,*,#166,.T.);
#215=ORIENTED_EDGE('',*,*,#167,.T.);
#216=ORIENTED_EDGE('',*,*,#168,.T.);
#217=ORIENTED_EDGE('',*,*,#164,.F.);
#218=ORIENTED_EDGE('',*,*,#169,.T.);
#219=ORIENTED_EDGE('',*,*,#162,.T.);
#220=ORIENTED_EDGE('',*,*,#170,.T.);
#221=ORIENTED_EDGE('',*,*,#167,.F.);
#222=ORIENTED_EDGE('',*,*,#170,.F.);
#223=ORIENTED_EDGE('',*,*,#161,.F.);
#224=ORIENTED_EDGE('',*,*,#165,.F.);
#225=ORIENTED_EDGE('',*,*,#168,.F.);
#226=ORIENTED_EDGE('',*,*,#169,.F.);
#227=ORIENTED_EDGE('',*,*,#166,.F.);
#228=ORIENTED_EDGE('',*,*,#163,.F.);
#229=ORIENTED_EDGE('',*,*,#159,.F.);
#230=ORIENTED_EDGE('',*,*,#158,.F.);
#231=CYLINDRICAL_SURFACE('',#265,5.);
#232=CYLINDRICAL_SURFACE('',#275,9.);
#233=ADVANCED_FACE('',(#31),#231,.F.);
#234=ADVANCED_FACE('',(#32),#17,.F.);
#235=ADVANCED_FACE('',(#33),#18,.T.);
#236=ADVANCED_FACE('',(#34),#19,.T.);
#237=ADVANCED_FACE('',(#35),#20,.T.);
#238=ADVANCED_FACE('',(#36),#21,.T.);
#239=ADVANCED_FACE('',(#37),#22,.T.);
#240=ADVANCED_FACE('',(#38,#15),#23,.F.);
#241=ADVANCED_FACE('',(#39),#232,.T.);
#242=ADVANCED_FACE('',(#40),#24,.T.);
#243=ADVANCED_FACE('',(#41),#25,.F.);
#244=ADVANCED_FACE('',(#42),#26,.F.);
#245=ADVANCED_FACE('',(#43),#27,.F.);
#246=ADVANCED_FACE('',(#44),#28,.F.);
#247=ADVANCED_FACE('',(#45),#29,.F.);
#248=ADVANCED_FACE('',(#46,#16),#30,.T.);
#249=CLOSED_SHELL('',(#233,#234,#235,#236,#237,#238,#239,#240));
#250=CLOSED_SHELL('',(#241,#242,#243,#244,#245,#246,#247,#248));
#251=BREP_WITH_VOIDS('Body1',#249,(#14));
#252=DERIVED_UNIT_ELEMENT(#254,1.);
#253=DERIVED_UNIT_ELEMENT(#425,-3.);
#254=(
MASS_UNIT()
NAMED_UNIT(*)
SI_UNIT(.KILO.,.GRAM.)
);
#255=DERIVED_UNIT((#252,#253));
#256=MEASURE_REPRESENTATION_ITEM('density measure',
POSITIVE_RATIO_MEASURE(7850.),#255);
#257=PROPERTY_DEFINITION_REPRESENTATION(#262,#259);
#258=PROPERTY_DEFINITION_REPRESENTATION(#263,#260);
#259=REPRESENTATION('material name',(#261),#422);
#260=REPRESENTATION('density',(#256),#422);
#261=DESCRIPTIVE_REPRESENTATION_ITEM('Steel','Steel');
#262=PROPERTY_DEFINITION('material property','material name',#432);
#263=PROPERTY_DEFINITION('material property','density of part',#432);
#264=AXIS2_PLACEMENT_3D('',#353,#285,#286);
#265=AXIS2_PLACEMENT_3D('',#354,#287,#288);
#266=AXIS2_PLACEMENT_3D('',#356,#289,#290);
#267=AXIS2_PLACEMENT_3D('',#359,#292,#293);
#268=AXIS2_PLACEMENT_3D('',#360,#294,#295);
#269=AXIS2_PLACEMENT_3D('',#361,#296,#297);
#270=AXIS2_PLACEMENT_3D('',#370,#302,#303);
#271=AXIS2_PLACEMENT_3D('',#376,#307,#308);
#272=AXIS2_PLACEMENT_3D('',#382,#312,#313);
#273=AXIS2_PLACEMENT_3D('',#385,#316,#317);
#274=AXIS2_PLACEMENT_3D('',#386,#318,#319);
#275=AXIS2_PLACEMENT_3D('',#387,#320,#321);
#276=AXIS2_PLACEMENT_3D('',#389,#322,#323);
#277=AXIS2_PLACEMENT_3D('',#392,#325,#326);
#278=AXIS2_PLACEMENT_3D('',#393,#327,#328);
#279=AXIS2_PLACEMENT_3D('',#394,#329,#330);
#280=AXIS2_PLACEMENT_3D('',#403,#335,#336);
#281=AXIS2_PLACEMENT_3D('',#409,#340,#341);
#282=AXIS2_PLACEMENT_3D('',#415,#345,#346);
#283=AXIS2_PLACEMENT_3D('',#418,#349,#350);
#284=AXIS2_PLACEMENT_3D('',#419,#351,#352);
#285=DIRECTION('axis',(0.,0.,1.));
#286=DIRECTION('refdir',(1.,0.,0.));
#287=DIRECTION('center_axis',(0.,1.,0.));
#288=DIRECTION('ref_axis',(1.,0.,0.));
#289=DIRECTION('center_axis',(0.,1.,0.));
#290=DIRECTION('ref_axis',(1.,0.,0.));
#291=DIRECTION('',(0.,1.,0.));
#292=DIRECTION('center_axis',(0.,1.,0.));
#293=DIRECTION('ref_axis',(1.,0.,0.));
#294=DIRECTION('center_axis',(0.,1.,0.));
#295=DIRECTION('ref_axis',(1.,0.,0.));
#296=DIRECTION('center_axis',(-1.,0.,0.));
#297=DIRECTION('ref_axis',(0.,0.,1.));
#298=DIRECTION('',(0.,0.,-1.));
#299=DIRECTION('',(0.,1.,0.));
#300=DIRECTION('',(0.,0.,1.));
#301=DIRECTION('',(0.,1.,0.));
#302=DIRECTION('center_axis',(0.,0.,-1.));
#303=DIRECTION('ref_axis',(-1.,0.,0.));
#304=DIRECTION('',(1.,0.,0.));
#305=DIRECTION('',(-1.,0.,0.));
#306=DIRECTION('',(0.,1.,0.));
#307=DIRECTION('center_axis',(1.,0.,0.));
#308=DIRECTION('ref_axis',(0.,0.,-1.));
#309=DIRECTION('',(0.,0.,1.));
#310=DIRECTION('',(0.,0.,-1.));
#311=DIRECTION('',(0.,1.,0.));
#312=DIRECTION('center_axis',(0.,0.,1.));
#313=DIRECTION('ref_axis',(1.,0.,0.));
#314=DIRECTION('',(-1.,0.,0.));
#315=DIRECTION('',(1.,0.,0.));
#316=DIRECTION('center_axis',(0.,1.,0.));
#317=DIRECTION('ref_axis',(0.,0.,1.));
#318=DIRECTION('center_axis',(0.,1.,0.));
#319=DIRECTION('ref_axis',(1.,0.,0.));
#320=DIRECTION('center_axis',(0.,1.,0.));
#321=DIRECTION('ref_axis',(1.,0.,0.));
#322=DIRECTION('center_axis',(0.,-1.,0.));
#323=DIRECTION('ref_axis',(1.,0.,0.));
#324=DIRECTION('',(0.,-1.,0.));
#325=DIRECTION('center_axis',(0.,-1.,0.));
#326=DIRECTION('ref_axis',(1.,0.,0.));
#327=DIRECTION('center_axis',(0.,1.,0.));
#328=DIRECTION('ref_axis',(1.,0.,0.));
#329=DIRECTION('center_axis',(-1.,0.,0.));
#330=DIRECTION('ref_axis',(0.,0.,1.));
#331=DIRECTION('',(0.,0.,-1.));
#332=DIRECTION('',(0.,-1.,0.));
#333=DIRECTION('',(0.,0.,-1.));
#334=DIRECTION('',(0.,1.,0.));
#335=DIRECTION('center_axis',(0.,0.,-1.));
#336=DIRECTION('ref_axis',(-1.,0.,0.));
#337=DIRECTION('',(1.,0.,0.));
#338=DIRECTION('',(0.,-1.,0.));
#339=DIRECTION('',(1.,0.,0.));
#340=DIRECTION('center_axis',(1.,0.,0.));
#341=DIRECTION('ref_axis',(0.,0.,-1.));
#342=DIRECTION('',(0.,0.,1.));
#343=DIRECTION('',(0.,-1.,0.));
#344=DIRECTION('',(0.,0.,1.));
#345=DIRECTION('center_axis',(0.,0.,1.));
#346=DIRECTION('ref_axis',(1.,0.,0.));
#347=DIRECTION('',(-1.,0.,0.));
#348=DIRECTION('',(-1.,0.,0.));
#349=DIRECTION('center_axis',(0.,1.,0.));
#350=DIRECTION('ref_axis',(0.,0.,1.));
#351=DIRECTION('center_axis',(0.,1.,0.));
#352=DIRECTION('ref_axis',(1.,0.,0.));
#353=CARTESIAN_POINT('',(0.,0.,0.));
#354=CARTESIAN_POINT('Origin',(0.,0.,-26.059232749716));
#355=CARTESIAN_POINT('',(-5.,0.,-26.059232749716));
#356=CARTESIAN_POINT('Origin',(0.,0.,-26.059232749716));
#357=CARTESIAN_POINT('',(-5.,14.,-26.059232749716));
#358=CARTESIAN_POINT('',(-5.,0.,-26.059232749716));
#359=CARTESIAN_POINT('Origin',(0.,14.,-26.059232749716));
#360=CARTESIAN_POINT('Origin',(0.,14.,-26.059232749716));
#361=CARTESIAN_POINT('Origin',(-100.,0.,-50.));
#362=CARTESIAN_POINT('',(-100.,0.,0.));
#363=CARTESIAN_POINT('',(-100.,0.,-50.));
#364=CARTESIAN_POINT('',(-100.,0.,0.));
#365=CARTESIAN_POINT('',(-100.,40.,0.));
#366=CARTESIAN_POINT('',(-100.,0.,0.));
#367=CARTESIAN_POINT('',(-100.,40.,-50.));
#368=CARTESIAN_POINT('',(-100.,40.,0.));
#369=CARTESIAN_POINT('',(-100.,0.,-50.));
#370=CARTESIAN_POINT('Origin',(100.,0.,-50.));
#371=CARTESIAN_POINT('',(100.,0.,-50.));
#372=CARTESIAN_POINT('',(-100.,0.,-50.));
#373=CARTESIAN_POINT('',(100.,40.,-50.));
#374=CARTESIAN_POINT('',(-100.,40.,-50.));
#375=CARTESIAN_POINT('',(100.,0.,-50.));
#376=CARTESIAN_POINT('Origin',(100.,0.,0.));
#377=CARTESIAN_POINT('',(100.,0.,0.));
#378=CARTESIAN_POINT('',(100.,0.,-50.));
#379=CARTESIAN_POINT('',(100.,40.,0.));
#380=CARTESIAN_POINT('',(100.,40.,-50.));
#381=CARTESIAN_POINT('',(100.,0.,0.));
#382=CARTESIAN_POINT('Origin',(-100.,0.,0.));
#383=CARTESIAN_POINT('',(100.,0.,0.));
#384=CARTESIAN_POINT('',(100.,40.,0.));
#385=CARTESIAN_POINT('Origin',(0.,40.,-25.));
#386=CARTESIAN_POINT('Origin',(0.,0.,-25.));
#387=CARTESIAN_POINT('Origin',(0.,0.,-26.059232749716));
#388=CARTESIAN_POINT('',(-9.,18.,-26.059232749716));
#389=CARTESIAN_POINT('Origin',(0.,18.,-26.059232749716));
#390=CARTESIAN_POINT('',(-9.,4.,-26.059232749716));
#391=CARTESIAN_POINT('',(-9.,0.,-26.059232749716));
#392=CARTESIAN_POINT('Origin',(0.,4.,-26.059232749716));
#393=CARTESIAN_POINT('Origin',(0.,18.,-26.059232749716));
#394=CARTESIAN_POINT('Origin',(-96.,0.,-50.));
#395=CARTESIAN_POINT('',(-96.,4.,-4.));
#396=CARTESIAN_POINT('',(-96.,4.,-46.));
#397=CARTESIAN_POINT('',(-96.,4.,-37.5));
#398=CARTESIAN_POINT('',(-96.,36.,-46.));
#399=CARTESIAN_POINT('',(-96.,0.,-46.));
#400=CARTESIAN_POINT('',(-96.,36.,-4.));
#401=CARTESIAN_POINT('',(-96.,36.,-37.5));
#402=CARTESIAN_POINT('',(-96.,0.,-4.));
#403=CARTESIAN_POINT('Origin',(100.,0.,-46.));
#404=CARTESIAN_POINT('',(96.,4.,-46.));
#405=CARTESIAN_POINT('',(50.,4.,-46.));
#406=CARTESIAN_POINT('',(96.,36.,-46.));
#407=CARTESIAN_POINT('',(96.,0.,-46.));
#408=CARTESIAN_POINT('',(50.,36.,-46.));
#409=CARTESIAN_POINT('Origin',(96.,0.,0.));
#410=CARTESIAN_POINT('',(96.,4.,-4.));
#411=CARTESIAN_POINT('',(96.,4.,-12.5));
#412=CARTESIAN_POINT('',(96.,36.,-4.));
#413=CARTESIAN_POINT('',(96.,0.,-4.));
#414=CARTESIAN_POINT('',(96.,36.,-12.5));
#415=CARTESIAN_POINT('Origin',(-100.,0.,-4.));
#416=CARTESIAN_POINT('',(-50.,4.,-4.));
#417=CARTESIAN_POINT('',(-50.,36.,-4.));
#418=CARTESIAN_POINT('Origin',(0.,36.,-25.));
#419=CARTESIAN_POINT('Origin',(0.,4.,-25.));
#420=UNCERTAINTY_MEASURE_WITH_UNIT(LENGTH_MEASURE(0.01),#424,
'DISTANCE_ACCURACY_VALUE',
'Maximum model space distance between geometric entities at asserted c
onnectivities');
#421=UNCERTAINTY_MEASURE_WITH_UNIT(LENGTH_MEASURE(0.01),#424,
'DISTANCE_ACCURACY_VALUE',
'Maximum model space distance between geometric entities at asserted c
onnectivities');
#422=(
GEOMETRIC_REPRESENTATION_CONTEXT(3)
GLOBAL_UNCERTAINTY_ASSIGNED_CONTEXT((#420))
GLOBAL_UNIT_ASSIGNED_CONTEXT((#424,#426,#427))
REPRESENTATION_CONTEXT('','3D')
);
#423=(
GEOMETRIC_REPRESENTATION_CONTEXT(3)
GLOBAL_UNCERTAINTY_ASSIGNED_CONTEXT((#421))
GLOBAL_UNIT_ASSIGNED_CONTEXT((#424,#426,#427))
REPRESENTATION_CONTEXT('','3D')
);
#424=(
LENGTH_UNIT()
NAMED_UNIT(*)
SI_UNIT(.MILLI.,.METRE.)
);
#425=(
LENGTH_UNIT()
NAMED_UNIT(*)
SI_UNIT($,.METRE.)
);
#426=(
NAMED_UNIT(*)
PLANE_ANGLE_UNIT()
SI_UNIT($,.RADIAN.)
);
#427=(
NAMED_UNIT(*)
SI_UNIT($,.STERADIAN.)
SOLID_ANGLE_UNIT()
);
#428=SHAPE_DEFINITION_REPRESENTATION(#429,#430);
#429=PRODUCT_DEFINITION_SHAPE('',$,#432);
#430=SHAPE_REPRESENTATION('',(#264),#422);
#431=PRODUCT_DEFINITION_CONTEXT('part definition',#436,'design');
#432=PRODUCT_DEFINITION('2026-07-11-18-04-32-098','backrest_shell',#433,
#431);
#433=PRODUCT_DEFINITION_FORMATION('',$,#438);
#434=PRODUCT_RELATED_PRODUCT_CATEGORY('backrest_shell','backrest_shell',
(#438));
#435=APPLICATION_PROTOCOL_DEFINITION('international standard',
'automotive_design',2009,#436);
#436=APPLICATION_CONTEXT(
'Core Data for Automotive Mechanical Design Process');
#437=PRODUCT_CONTEXT('part definition',#436,'mechanical');
#438=PRODUCT('2026-07-11-18-04-32-098','backrest_shell',$,(#437));
#439=PRESENTATION_STYLE_ASSIGNMENT((#440));
#440=SURFACE_STYLE_USAGE(.BOTH.,#441);
#441=SURFACE_SIDE_STYLE('',(#442));
#442=SURFACE_STYLE_FILL_AREA(#443);
#443=FILL_AREA_STYLE('Steel - Satin',(#444));
#444=FILL_AREA_STYLE_COLOUR('Steel - Satin',#445);
#445=COLOUR_RGB('Steel - Satin',0.627450980392157,0.627450980392157,0.627450980392157);
ENDSEC;
END-ISO-10303-21;
