ISO-10303-21;
HEADER;
/* Generated by software containing ST-Developer
 * from STEP Tools, Inc. (www.steptools.com) 
 */

FILE_DESCRIPTION(
/* description */ (''),
/* implementation_level */ '2;1');

FILE_NAME(
/* name */ 'seatbelt_outer_frame.step',
/* time_stamp */ '2026-08-14T19:15:57+09:00',
/* author */ (''),
/* organization */ (''),
/* preprocessor_version */ 'ST-DEVELOPER v20.1',
/* originating_system */ 'Autodesk Translation Framework v15.8.0.0',
/* authorisation */ '');

FILE_SCHEMA (('AUTOMOTIVE_DESIGN { 1 0 10303 214 3 1 1 }'));
ENDSEC;

DATA;
#10=MECHANICAL_DESIGN_GEOMETRIC_PRESENTATION_REPRESENTATION('',(#13),#711);
#11=SHAPE_REPRESENTATION_RELATIONSHIP('SRR','None',#718,#12);
#12=ADVANCED_BREP_SHAPE_REPRESENTATION('',(#14),#710);
#13=STYLED_ITEM('',(#727),#14);
#14=MANIFOLD_SOLID_BREP('Body6',#443);
#15=FACE_OUTER_BOUND('',#37,.T.);
#16=FACE_OUTER_BOUND('',#38,.T.);
#17=FACE_OUTER_BOUND('',#39,.T.);
#18=FACE_OUTER_BOUND('',#40,.T.);
#19=FACE_OUTER_BOUND('',#41,.T.);
#20=FACE_OUTER_BOUND('',#42,.T.);
#21=FACE_OUTER_BOUND('',#43,.T.);
#22=FACE_OUTER_BOUND('',#44,.T.);
#23=FACE_OUTER_BOUND('',#45,.T.);
#24=FACE_OUTER_BOUND('',#46,.T.);
#25=FACE_OUTER_BOUND('',#47,.T.);
#26=FACE_OUTER_BOUND('',#48,.T.);
#27=FACE_OUTER_BOUND('',#49,.T.);
#28=FACE_OUTER_BOUND('',#50,.T.);
#29=FACE_OUTER_BOUND('',#51,.T.);
#30=FACE_OUTER_BOUND('',#52,.T.);
#31=FACE_OUTER_BOUND('',#53,.T.);
#32=FACE_OUTER_BOUND('',#54,.T.);
#33=FACE_OUTER_BOUND('',#55,.T.);
#34=FACE_OUTER_BOUND('',#56,.T.);
#35=FACE_OUTER_BOUND('',#57,.T.);
#36=FACE_OUTER_BOUND('',#58,.T.);
#37=EDGE_LOOP('',(#279,#280,#281,#282));
#38=EDGE_LOOP('',(#283,#284,#285,#286));
#39=EDGE_LOOP('',(#287,#288,#289,#290));
#40=EDGE_LOOP('',(#291,#292,#293,#294));
#41=EDGE_LOOP('',(#295,#296,#297,#298));
#42=EDGE_LOOP('',(#299,#300,#301,#302));
#43=EDGE_LOOP('',(#303,#304,#305,#306,#307,#308,#309,#310,#311,#312,#313,
#314));
#44=EDGE_LOOP('',(#315,#316,#317,#318));
#45=EDGE_LOOP('',(#319,#320,#321,#322));
#46=EDGE_LOOP('',(#323,#324,#325,#326,#327,#328,#329,#330,#331,#332,#333,
#334,#335,#336,#337,#338));
#47=EDGE_LOOP('',(#339,#340,#341,#342));
#48=EDGE_LOOP('',(#343,#344,#345,#346));
#49=EDGE_LOOP('',(#347,#348,#349,#350));
#50=EDGE_LOOP('',(#351,#352,#353,#354));
#51=EDGE_LOOP('',(#355,#356,#357,#358));
#52=EDGE_LOOP('',(#359,#360,#361,#362));
#53=EDGE_LOOP('',(#363,#364,#365,#366));
#54=EDGE_LOOP('',(#367,#368,#369,#370,#371,#372,#373,#374,#375,#376,#377,
#378));
#55=EDGE_LOOP('',(#379,#380,#381,#382));
#56=EDGE_LOOP('',(#383,#384,#385,#386));
#57=EDGE_LOOP('',(#387,#388,#389,#390));
#58=EDGE_LOOP('',(#391,#392,#393,#394,#395,#396,#397,#398));
#59=LINE('',#589,#119);
#60=LINE('',#591,#120);
#61=LINE('',#593,#121);
#62=LINE('',#594,#122);
#63=LINE('',#598,#123);
#64=LINE('',#600,#124);
#65=LINE('',#602,#125);
#66=LINE('',#603,#126);
#67=LINE('',#607,#127);
#68=LINE('',#608,#128);
#69=LINE('',#609,#129);
#70=LINE('',#613,#130);
#71=LINE('',#614,#131);
#72=LINE('',#615,#132);
#73=LINE('',#619,#133);
#74=LINE('',#620,#134);
#75=LINE('',#621,#135);
#76=LINE('',#625,#136);
#77=LINE('',#626,#137);
#78=LINE('',#627,#138);
#79=LINE('',#630,#139);
#80=LINE('',#632,#140);
#81=LINE('',#633,#141);
#82=LINE('',#635,#142);
#83=LINE('',#637,#143);
#84=LINE('',#639,#144);
#85=LINE('',#641,#145);
#86=LINE('',#643,#146);
#87=LINE('',#645,#147);
#88=LINE('',#646,#148);
#89=LINE('',#649,#149);
#90=LINE('',#650,#150);
#91=LINE('',#653,#151);
#92=LINE('',#654,#152);
#93=LINE('',#657,#153);
#94=LINE('',#658,#154);
#95=LINE('',#660,#155);
#96=LINE('',#662,#156);
#97=LINE('',#664,#157);
#98=LINE('',#666,#158);
#99=LINE('',#668,#159);
#100=LINE('',#669,#160);
#101=LINE('',#672,#161);
#102=LINE('',#673,#162);
#103=LINE('',#676,#163);
#104=LINE('',#677,#164);
#105=LINE('',#680,#165);
#106=LINE('',#682,#166);
#107=LINE('',#683,#167);
#108=LINE('',#686,#168);
#109=LINE('',#687,#169);
#110=LINE('',#690,#170);
#111=LINE('',#691,#171);
#112=LINE('',#693,#172);
#113=LINE('',#696,#173);
#114=LINE('',#697,#174);
#115=LINE('',#700,#175);
#116=LINE('',#701,#176);
#117=LINE('',#703,#177);
#118=LINE('',#706,#178);
#119=VECTOR('',#483,10.);
#120=VECTOR('',#484,10.);
#121=VECTOR('',#485,10.);
#122=VECTOR('',#486,10.);
#123=VECTOR('',#489,10.);
#124=VECTOR('',#490,10.);
#125=VECTOR('',#491,10.);
#126=VECTOR('',#492,10.);
#127=VECTOR('',#495,10.);
#128=VECTOR('',#496,10.);
#129=VECTOR('',#497,10.);
#130=VECTOR('',#500,10.);
#131=VECTOR('',#501,10.);
#132=VECTOR('',#502,10.);
#133=VECTOR('',#505,10.);
#134=VECTOR('',#506,10.);
#135=VECTOR('',#507,10.);
#136=VECTOR('',#510,10.);
#137=VECTOR('',#511,10.);
#138=VECTOR('',#512,10.);
#139=VECTOR('',#515,10.);
#140=VECTOR('',#516,10.);
#141=VECTOR('',#517,10.);
#142=VECTOR('',#518,10.);
#143=VECTOR('',#519,10.);
#144=VECTOR('',#520,10.);
#145=VECTOR('',#521,10.);
#146=VECTOR('',#522,10.);
#147=VECTOR('',#523,10.);
#148=VECTOR('',#524,10.);
#149=VECTOR('',#527,10.);
#150=VECTOR('',#528,10.);
#151=VECTOR('',#531,10.);
#152=VECTOR('',#532,10.);
#153=VECTOR('',#535,10.);
#154=VECTOR('',#536,10.);
#155=VECTOR('',#537,10.);
#156=VECTOR('',#538,10.);
#157=VECTOR('',#539,10.);
#158=VECTOR('',#540,10.);
#159=VECTOR('',#541,10.);
#160=VECTOR('',#542,10.);
#161=VECTOR('',#545,10.);
#162=VECTOR('',#546,10.);
#163=VECTOR('',#549,10.);
#164=VECTOR('',#550,10.);
#165=VECTOR('',#553,10.);
#166=VECTOR('',#554,10.);
#167=VECTOR('',#555,10.);
#168=VECTOR('',#558,10.);
#169=VECTOR('',#559,10.);
#170=VECTOR('',#562,10.);
#171=VECTOR('',#563,10.);
#172=VECTOR('',#566,10.);
#173=VECTOR('',#569,10.);
#174=VECTOR('',#570,10.);
#175=VECTOR('',#573,10.);
#176=VECTOR('',#574,10.);
#177=VECTOR('',#577,10.);
#178=VECTOR('',#582,10.);
#179=VERTEX_POINT('',#587);
#180=VERTEX_POINT('',#588);
#181=VERTEX_POINT('',#590);
#182=VERTEX_POINT('',#592);
#183=VERTEX_POINT('',#596);
#184=VERTEX_POINT('',#597);
#185=VERTEX_POINT('',#599);
#186=VERTEX_POINT('',#601);
#187=VERTEX_POINT('',#605);
#188=VERTEX_POINT('',#606);
#189=VERTEX_POINT('',#611);
#190=VERTEX_POINT('',#612);
#191=VERTEX_POINT('',#617);
#192=VERTEX_POINT('',#618);
#193=VERTEX_POINT('',#623);
#194=VERTEX_POINT('',#624);
#195=VERTEX_POINT('',#629);
#196=VERTEX_POINT('',#631);
#197=VERTEX_POINT('',#634);
#198=VERTEX_POINT('',#636);
#199=VERTEX_POINT('',#638);
#200=VERTEX_POINT('',#640);
#201=VERTEX_POINT('',#642);
#202=VERTEX_POINT('',#644);
#203=VERTEX_POINT('',#648);
#204=VERTEX_POINT('',#652);
#205=VERTEX_POINT('',#656);
#206=VERTEX_POINT('',#659);
#207=VERTEX_POINT('',#661);
#208=VERTEX_POINT('',#663);
#209=VERTEX_POINT('',#665);
#210=VERTEX_POINT('',#667);
#211=VERTEX_POINT('',#671);
#212=VERTEX_POINT('',#675);
#213=VERTEX_POINT('',#679);
#214=VERTEX_POINT('',#681);
#215=VERTEX_POINT('',#685);
#216=VERTEX_POINT('',#689);
#217=VERTEX_POINT('',#695);
#218=VERTEX_POINT('',#699);
#219=EDGE_CURVE('',#179,#180,#59,.T.);
#220=EDGE_CURVE('',#180,#181,#60,.T.);
#221=EDGE_CURVE('',#182,#181,#61,.T.);
#222=EDGE_CURVE('',#182,#179,#62,.T.);
#223=EDGE_CURVE('',#183,#184,#63,.T.);
#224=EDGE_CURVE('',#185,#184,#64,.T.);
#225=EDGE_CURVE('',#186,#185,#65,.T.);
#226=EDGE_CURVE('',#186,#183,#66,.T.);
#227=EDGE_CURVE('',#187,#188,#67,.T.);
#228=EDGE_CURVE('',#184,#188,#68,.T.);
#229=EDGE_CURVE('',#183,#187,#69,.T.);
#230=EDGE_CURVE('',#189,#190,#70,.T.);
#231=EDGE_CURVE('',#188,#190,#71,.T.);
#232=EDGE_CURVE('',#187,#189,#72,.T.);
#233=EDGE_CURVE('',#191,#192,#73,.T.);
#234=EDGE_CURVE('',#190,#192,#74,.T.);
#235=EDGE_CURVE('',#189,#191,#75,.T.);
#236=EDGE_CURVE('',#193,#194,#76,.T.);
#237=EDGE_CURVE('',#192,#194,#77,.T.);
#238=EDGE_CURVE('',#191,#193,#78,.T.);
#239=EDGE_CURVE('',#181,#195,#79,.T.);
#240=EDGE_CURVE('',#196,#195,#80,.T.);
#241=EDGE_CURVE('',#194,#196,#81,.T.);
#242=EDGE_CURVE('',#197,#193,#82,.T.);
#243=EDGE_CURVE('',#197,#198,#83,.T.);
#244=EDGE_CURVE('',#198,#199,#84,.T.);
#245=EDGE_CURVE('',#200,#199,#85,.T.);
#246=EDGE_CURVE('',#201,#200,#86,.T.);
#247=EDGE_CURVE('',#202,#201,#87,.T.);
#248=EDGE_CURVE('',#202,#182,#88,.T.);
#249=EDGE_CURVE('',#180,#203,#89,.T.);
#250=EDGE_CURVE('',#195,#203,#90,.T.);
#251=EDGE_CURVE('',#203,#204,#91,.T.);
#252=EDGE_CURVE('',#204,#196,#92,.T.);
#253=EDGE_CURVE('',#205,#204,#93,.T.);
#254=EDGE_CURVE('',#199,#205,#94,.T.);
#255=EDGE_CURVE('',#198,#206,#95,.T.);
#256=EDGE_CURVE('',#206,#207,#96,.T.);
#257=EDGE_CURVE('',#207,#208,#97,.T.);
#258=EDGE_CURVE('',#208,#209,#98,.T.);
#259=EDGE_CURVE('',#209,#210,#99,.T.);
#260=EDGE_CURVE('',#210,#185,#100,.T.);
#261=EDGE_CURVE('',#205,#211,#101,.T.);
#262=EDGE_CURVE('',#211,#200,#102,.T.);
#263=EDGE_CURVE('',#201,#212,#103,.T.);
#264=EDGE_CURVE('',#212,#211,#104,.T.);
#265=EDGE_CURVE('',#213,#208,#105,.T.);
#266=EDGE_CURVE('',#213,#214,#106,.T.);
#267=EDGE_CURVE('',#214,#209,#107,.T.);
#268=EDGE_CURVE('',#215,#207,#108,.T.);
#269=EDGE_CURVE('',#215,#213,#109,.T.);
#270=EDGE_CURVE('',#216,#206,#110,.T.);
#271=EDGE_CURVE('',#216,#215,#111,.T.);
#272=EDGE_CURVE('',#197,#216,#112,.T.);
#273=EDGE_CURVE('',#217,#212,#113,.T.);
#274=EDGE_CURVE('',#217,#202,#114,.T.);
#275=EDGE_CURVE('',#218,#186,#115,.T.);
#276=EDGE_CURVE('',#214,#218,#116,.T.);
#277=EDGE_CURVE('',#218,#210,#117,.T.);
#278=EDGE_CURVE('',#179,#217,#118,.T.);
#279=ORIENTED_EDGE('',*,*,#219,.T.);
#280=ORIENTED_EDGE('',*,*,#220,.T.);
#281=ORIENTED_EDGE('',*,*,#221,.F.);
#282=ORIENTED_EDGE('',*,*,#222,.T.);
#283=ORIENTED_EDGE('',*,*,#223,.T.);
#284=ORIENTED_EDGE('',*,*,#224,.F.);
#285=ORIENTED_EDGE('',*,*,#225,.F.);
#286=ORIENTED_EDGE('',*,*,#226,.T.);
#287=ORIENTED_EDGE('',*,*,#227,.T.);
#288=ORIENTED_EDGE('',*,*,#228,.F.);
#289=ORIENTED_EDGE('',*,*,#223,.F.);
#290=ORIENTED_EDGE('',*,*,#229,.T.);
#291=ORIENTED_EDGE('',*,*,#230,.T.);
#292=ORIENTED_EDGE('',*,*,#231,.F.);
#293=ORIENTED_EDGE('',*,*,#227,.F.);
#294=ORIENTED_EDGE('',*,*,#232,.T.);
#295=ORIENTED_EDGE('',*,*,#233,.T.);
#296=ORIENTED_EDGE('',*,*,#234,.F.);
#297=ORIENTED_EDGE('',*,*,#230,.F.);
#298=ORIENTED_EDGE('',*,*,#235,.T.);
#299=ORIENTED_EDGE('',*,*,#236,.T.);
#300=ORIENTED_EDGE('',*,*,#237,.F.);
#301=ORIENTED_EDGE('',*,*,#233,.F.);
#302=ORIENTED_EDGE('',*,*,#238,.T.);
#303=ORIENTED_EDGE('',*,*,#221,.T.);
#304=ORIENTED_EDGE('',*,*,#239,.T.);
#305=ORIENTED_EDGE('',*,*,#240,.F.);
#306=ORIENTED_EDGE('',*,*,#241,.F.);
#307=ORIENTED_EDGE('',*,*,#236,.F.);
#308=ORIENTED_EDGE('',*,*,#242,.F.);
#309=ORIENTED_EDGE('',*,*,#243,.T.);
#310=ORIENTED_EDGE('',*,*,#244,.T.);
#311=ORIENTED_EDGE('',*,*,#245,.F.);
#312=ORIENTED_EDGE('',*,*,#246,.F.);
#313=ORIENTED_EDGE('',*,*,#247,.F.);
#314=ORIENTED_EDGE('',*,*,#248,.T.);
#315=ORIENTED_EDGE('',*,*,#220,.F.);
#316=ORIENTED_EDGE('',*,*,#249,.T.);
#317=ORIENTED_EDGE('',*,*,#250,.F.);
#318=ORIENTED_EDGE('',*,*,#239,.F.);
#319=ORIENTED_EDGE('',*,*,#250,.T.);
#320=ORIENTED_EDGE('',*,*,#251,.T.);
#321=ORIENTED_EDGE('',*,*,#252,.T.);
#322=ORIENTED_EDGE('',*,*,#240,.T.);
#323=ORIENTED_EDGE('',*,*,#253,.F.);
#324=ORIENTED_EDGE('',*,*,#254,.F.);
#325=ORIENTED_EDGE('',*,*,#244,.F.);
#326=ORIENTED_EDGE('',*,*,#255,.T.);
#327=ORIENTED_EDGE('',*,*,#256,.T.);
#328=ORIENTED_EDGE('',*,*,#257,.T.);
#329=ORIENTED_EDGE('',*,*,#258,.T.);
#330=ORIENTED_EDGE('',*,*,#259,.T.);
#331=ORIENTED_EDGE('',*,*,#260,.T.);
#332=ORIENTED_EDGE('',*,*,#224,.T.);
#333=ORIENTED_EDGE('',*,*,#228,.T.);
#334=ORIENTED_EDGE('',*,*,#231,.T.);
#335=ORIENTED_EDGE('',*,*,#234,.T.);
#336=ORIENTED_EDGE('',*,*,#237,.T.);
#337=ORIENTED_EDGE('',*,*,#241,.T.);
#338=ORIENTED_EDGE('',*,*,#252,.F.);
#339=ORIENTED_EDGE('',*,*,#245,.T.);
#340=ORIENTED_EDGE('',*,*,#254,.T.);
#341=ORIENTED_EDGE('',*,*,#261,.T.);
#342=ORIENTED_EDGE('',*,*,#262,.T.);
#343=ORIENTED_EDGE('',*,*,#263,.F.);
#344=ORIENTED_EDGE('',*,*,#246,.T.);
#345=ORIENTED_EDGE('',*,*,#262,.F.);
#346=ORIENTED_EDGE('',*,*,#264,.F.);
#347=ORIENTED_EDGE('',*,*,#265,.F.);
#348=ORIENTED_EDGE('',*,*,#266,.T.);
#349=ORIENTED_EDGE('',*,*,#267,.T.);
#350=ORIENTED_EDGE('',*,*,#258,.F.);
#351=ORIENTED_EDGE('',*,*,#268,.F.);
#352=ORIENTED_EDGE('',*,*,#269,.T.);
#353=ORIENTED_EDGE('',*,*,#265,.T.);
#354=ORIENTED_EDGE('',*,*,#257,.F.);
#355=ORIENTED_EDGE('',*,*,#270,.F.);
#356=ORIENTED_EDGE('',*,*,#271,.T.);
#357=ORIENTED_EDGE('',*,*,#268,.T.);
#358=ORIENTED_EDGE('',*,*,#256,.F.);
#359=ORIENTED_EDGE('',*,*,#243,.F.);
#360=ORIENTED_EDGE('',*,*,#272,.T.);
#361=ORIENTED_EDGE('',*,*,#270,.T.);
#362=ORIENTED_EDGE('',*,*,#255,.F.);
#363=ORIENTED_EDGE('',*,*,#273,.F.);
#364=ORIENTED_EDGE('',*,*,#274,.T.);
#365=ORIENTED_EDGE('',*,*,#247,.T.);
#366=ORIENTED_EDGE('',*,*,#263,.T.);
#367=ORIENTED_EDGE('',*,*,#275,.F.);
#368=ORIENTED_EDGE('',*,*,#276,.F.);
#369=ORIENTED_EDGE('',*,*,#266,.F.);
#370=ORIENTED_EDGE('',*,*,#269,.F.);
#371=ORIENTED_EDGE('',*,*,#271,.F.);
#372=ORIENTED_EDGE('',*,*,#272,.F.);
#373=ORIENTED_EDGE('',*,*,#242,.T.);
#374=ORIENTED_EDGE('',*,*,#238,.F.);
#375=ORIENTED_EDGE('',*,*,#235,.F.);
#376=ORIENTED_EDGE('',*,*,#232,.F.);
#377=ORIENTED_EDGE('',*,*,#229,.F.);
#378=ORIENTED_EDGE('',*,*,#226,.F.);
#379=ORIENTED_EDGE('',*,*,#267,.F.);
#380=ORIENTED_EDGE('',*,*,#276,.T.);
#381=ORIENTED_EDGE('',*,*,#277,.T.);
#382=ORIENTED_EDGE('',*,*,#259,.F.);
#383=ORIENTED_EDGE('',*,*,#260,.F.);
#384=ORIENTED_EDGE('',*,*,#277,.F.);
#385=ORIENTED_EDGE('',*,*,#275,.T.);
#386=ORIENTED_EDGE('',*,*,#225,.T.);
#387=ORIENTED_EDGE('',*,*,#248,.F.);
#388=ORIENTED_EDGE('',*,*,#274,.F.);
#389=ORIENTED_EDGE('',*,*,#278,.F.);
#390=ORIENTED_EDGE('',*,*,#222,.F.);
#391=ORIENTED_EDGE('',*,*,#278,.T.);
#392=ORIENTED_EDGE('',*,*,#273,.T.);
#393=ORIENTED_EDGE('',*,*,#264,.T.);
#394=ORIENTED_EDGE('',*,*,#261,.F.);
#395=ORIENTED_EDGE('',*,*,#253,.T.);
#396=ORIENTED_EDGE('',*,*,#251,.F.);
#397=ORIENTED_EDGE('',*,*,#249,.F.);
#398=ORIENTED_EDGE('',*,*,#219,.F.);
#399=PLANE('',#457);
#400=PLANE('',#458);
#401=PLANE('',#459);
#402=PLANE('',#460);
#403=PLANE('',#461);
#404=PLANE('',#462);
#405=PLANE('',#463);
#406=PLANE('',#464);
#407=PLANE('',#465);
#408=PLANE('',#466);
#409=PLANE('',#467);
#410=PLANE('',#468);
#411=PLANE('',#469);
#412=PLANE('',#470);
#413=PLANE('',#471);
#414=PLANE('',#472);
#415=PLANE('',#473);
#416=PLANE('',#474);
#417=PLANE('',#475);
#418=PLANE('',#476);
#419=PLANE('',#477);
#420=PLANE('',#478);
#421=ADVANCED_FACE('',(#15),#399,.T.);
#422=ADVANCED_FACE('',(#16),#400,.T.);
#423=ADVANCED_FACE('',(#17),#401,.T.);
#424=ADVANCED_FACE('',(#18),#402,.T.);
#425=ADVANCED_FACE('',(#19),#403,.T.);
#426=ADVANCED_FACE('',(#20),#404,.T.);
#427=ADVANCED_FACE('',(#21),#405,.T.);
#428=ADVANCED_FACE('',(#22),#406,.T.);
#429=ADVANCED_FACE('',(#23),#407,.T.);
#430=ADVANCED_FACE('',(#24),#408,.T.);
#431=ADVANCED_FACE('',(#25),#409,.T.);
#432=ADVANCED_FACE('',(#26),#410,.T.);
#433=ADVANCED_FACE('',(#27),#411,.T.);
#434=ADVANCED_FACE('',(#28),#412,.T.);
#435=ADVANCED_FACE('',(#29),#413,.T.);
#436=ADVANCED_FACE('',(#30),#414,.T.);
#437=ADVANCED_FACE('',(#31),#415,.T.);
#438=ADVANCED_FACE('',(#32),#416,.T.);
#439=ADVANCED_FACE('',(#33),#417,.T.);
#440=ADVANCED_FACE('',(#34),#418,.T.);
#441=ADVANCED_FACE('',(#35),#419,.F.);
#442=ADVANCED_FACE('',(#36),#420,.T.);
#443=CLOSED_SHELL('',(#421,#422,#423,#424,#425,#426,#427,#428,#429,#430,
#431,#432,#433,#434,#435,#436,#437,#438,#439,#440,#441,#442));
#444=DERIVED_UNIT_ELEMENT(#446,1.);
#445=DERIVED_UNIT_ELEMENT(#713,-3.);
#446=(
MASS_UNIT()
NAMED_UNIT(*)
SI_UNIT(.KILO.,.GRAM.)
);
#447=DERIVED_UNIT((#444,#445));
#448=MEASURE_REPRESENTATION_ITEM('density measure',
POSITIVE_RATIO_MEASURE(7850.),#447);
#449=PROPERTY_DEFINITION_REPRESENTATION(#454,#451);
#450=PROPERTY_DEFINITION_REPRESENTATION(#455,#452);
#451=REPRESENTATION('material name',(#453),#710);
#452=REPRESENTATION('density',(#448),#710);
#453=DESCRIPTIVE_REPRESENTATION_ITEM('Steel','Steel');
#454=PROPERTY_DEFINITION('material property','material name',#720);
#455=PROPERTY_DEFINITION('material property','density of part',#720);
#456=AXIS2_PLACEMENT_3D('',#585,#479,#480);
#457=AXIS2_PLACEMENT_3D('',#586,#481,#482);
#458=AXIS2_PLACEMENT_3D('',#595,#487,#488);
#459=AXIS2_PLACEMENT_3D('',#604,#493,#494);
#460=AXIS2_PLACEMENT_3D('',#610,#498,#499);
#461=AXIS2_PLACEMENT_3D('',#616,#503,#504);
#462=AXIS2_PLACEMENT_3D('',#622,#508,#509);
#463=AXIS2_PLACEMENT_3D('',#628,#513,#514);
#464=AXIS2_PLACEMENT_3D('',#647,#525,#526);
#465=AXIS2_PLACEMENT_3D('',#651,#529,#530);
#466=AXIS2_PLACEMENT_3D('',#655,#533,#534);
#467=AXIS2_PLACEMENT_3D('',#670,#543,#544);
#468=AXIS2_PLACEMENT_3D('',#674,#547,#548);
#469=AXIS2_PLACEMENT_3D('',#678,#551,#552);
#470=AXIS2_PLACEMENT_3D('',#684,#556,#557);
#471=AXIS2_PLACEMENT_3D('',#688,#560,#561);
#472=AXIS2_PLACEMENT_3D('',#692,#564,#565);
#473=AXIS2_PLACEMENT_3D('',#694,#567,#568);
#474=AXIS2_PLACEMENT_3D('',#698,#571,#572);
#475=AXIS2_PLACEMENT_3D('',#702,#575,#576);
#476=AXIS2_PLACEMENT_3D('',#704,#578,#579);
#477=AXIS2_PLACEMENT_3D('',#705,#580,#581);
#478=AXIS2_PLACEMENT_3D('',#707,#583,#584);
#479=DIRECTION('axis',(0.,0.,1.));
#480=DIRECTION('refdir',(1.,0.,0.));
#481=DIRECTION('center_axis',(-1.,0.,0.));
#482=DIRECTION('ref_axis',(0.,-1.,0.));
#483=DIRECTION('',(0.,0.,1.));
#484=DIRECTION('',(0.,1.,0.));
#485=DIRECTION('',(0.,0.,1.));
#486=DIRECTION('',(0.,-1.,0.));
#487=DIRECTION('center_axis',(1.,7.04104693224438E-17,0.));
#488=DIRECTION('ref_axis',(-7.04104693224438E-17,1.,0.));
#489=DIRECTION('',(0.,0.,1.));
#490=DIRECTION('',(-7.04104693224438E-17,1.,0.));
#491=DIRECTION('',(0.,0.,1.));
#492=DIRECTION('',(-7.04104693224438E-17,1.,0.));
#493=DIRECTION('center_axis',(0.,1.,0.));
#494=DIRECTION('ref_axis',(-1.,0.,0.));
#495=DIRECTION('',(0.,0.,1.));
#496=DIRECTION('',(-1.,0.,0.));
#497=DIRECTION('',(-1.,0.,0.));
#498=DIRECTION('center_axis',(1.,0.,0.));
#499=DIRECTION('ref_axis',(0.,1.,0.));
#500=DIRECTION('',(0.,0.,1.));
#501=DIRECTION('',(0.,1.,0.));
#502=DIRECTION('',(0.,1.,0.));
#503=DIRECTION('center_axis',(0.,-1.,0.));
#504=DIRECTION('ref_axis',(1.,0.,0.));
#505=DIRECTION('',(0.,0.,1.));
#506=DIRECTION('',(1.,0.,0.));
#507=DIRECTION('',(1.,0.,0.));
#508=DIRECTION('center_axis',(1.,0.,0.));
#509=DIRECTION('ref_axis',(0.,1.,0.));
#510=DIRECTION('',(0.,0.,1.));
#511=DIRECTION('',(0.,1.,0.));
#512=DIRECTION('',(0.,1.,0.));
#513=DIRECTION('center_axis',(0.,1.,0.));
#514=DIRECTION('ref_axis',(-1.,0.,0.));
#515=DIRECTION('',(-1.,0.,0.));
#516=DIRECTION('',(0.,0.,-1.));
#517=DIRECTION('',(-1.,0.,0.));
#518=DIRECTION('',(-1.,0.,0.));
#519=DIRECTION('',(0.,0.,1.));
#520=DIRECTION('',(1.,0.,0.));
#521=DIRECTION('',(0.,0.,1.));
#522=DIRECTION('',(1.,0.,0.));
#523=DIRECTION('',(0.,0.,1.));
#524=DIRECTION('',(-1.,0.,0.));
#525=DIRECTION('center_axis',(0.,0.,-1.));
#526=DIRECTION('ref_axis',(0.,-1.,0.));
#527=DIRECTION('',(-1.,0.,0.));
#528=DIRECTION('',(0.,-1.,0.));
#529=DIRECTION('center_axis',(-1.,0.,0.));
#530=DIRECTION('ref_axis',(0.,0.,1.));
#531=DIRECTION('',(0.,0.,1.));
#532=DIRECTION('',(0.,1.,0.));
#533=DIRECTION('center_axis',(0.,0.,1.));
#534=DIRECTION('ref_axis',(1.,0.,0.));
#535=DIRECTION('',(-1.,0.,0.));
#536=DIRECTION('',(0.,-1.,0.));
#537=DIRECTION('',(0.,-1.,0.));
#538=DIRECTION('',(1.,0.,0.));
#539=DIRECTION('',(0.,-1.,0.));
#540=DIRECTION('',(-1.,0.,0.));
#541=DIRECTION('',(0.,-1.,0.));
#542=DIRECTION('',(-1.,0.,0.));
#543=DIRECTION('center_axis',(1.,0.,0.));
#544=DIRECTION('ref_axis',(0.,0.,-1.));
#545=DIRECTION('',(0.,0.,-1.));
#546=DIRECTION('',(0.,1.,0.));
#547=DIRECTION('center_axis',(0.,0.,-1.));
#548=DIRECTION('ref_axis',(0.,1.,0.));
#549=DIRECTION('',(0.,-1.,0.));
#550=DIRECTION('',(1.,0.,0.));
#551=DIRECTION('center_axis',(0.,1.,0.));
#552=DIRECTION('ref_axis',(-1.,0.,0.));
#553=DIRECTION('',(0.,0.,1.));
#554=DIRECTION('',(-1.,0.,0.));
#555=DIRECTION('',(0.,0.,1.));
#556=DIRECTION('center_axis',(-1.,0.,0.));
#557=DIRECTION('ref_axis',(0.,-1.,0.));
#558=DIRECTION('',(0.,0.,1.));
#559=DIRECTION('',(0.,-1.,0.));
#560=DIRECTION('center_axis',(0.,-1.,0.));
#561=DIRECTION('ref_axis',(1.,0.,0.));
#562=DIRECTION('',(0.,0.,1.));
#563=DIRECTION('',(1.,0.,0.));
#564=DIRECTION('center_axis',(-1.,0.,0.));
#565=DIRECTION('ref_axis',(0.,-1.,0.));
#566=DIRECTION('',(0.,-1.,0.));
#567=DIRECTION('center_axis',(1.,0.,0.));
#568=DIRECTION('ref_axis',(0.,1.,0.));
#569=DIRECTION('',(0.,0.,1.));
#570=DIRECTION('',(0.,1.,0.));
#571=DIRECTION('center_axis',(0.,0.,1.));
#572=DIRECTION('ref_axis',(1.,0.,0.));
#573=DIRECTION('',(-1.,0.,0.));
#574=DIRECTION('',(0.,-1.,0.));
#575=DIRECTION('center_axis',(-1.,0.,0.));
#576=DIRECTION('ref_axis',(0.,-1.,0.));
#577=DIRECTION('',(0.,0.,1.));
#578=DIRECTION('center_axis',(0.,1.,0.));
#579=DIRECTION('ref_axis',(-1.,0.,0.));
#580=DIRECTION('center_axis',(0.,0.,1.));
#581=DIRECTION('ref_axis',(1.,0.,0.));
#582=DIRECTION('',(1.,0.,0.));
#583=DIRECTION('center_axis',(0.,-1.,0.));
#584=DIRECTION('ref_axis',(1.,0.,0.));
#585=CARTESIAN_POINT('',(0.,0.,0.));
#586=CARTESIAN_POINT('Origin',(0.,100.,0.));
#587=CARTESIAN_POINT('',(0.,0.,0.));
#588=CARTESIAN_POINT('',(0.,0.,500.));
#589=CARTESIAN_POINT('',(0.,0.,0.));
#590=CARTESIAN_POINT('',(0.,100.,500.));
#591=CARTESIAN_POINT('',(0.,100.,500.));
#592=CARTESIAN_POINT('',(0.,100.,0.));
#593=CARTESIAN_POINT('',(0.,100.,0.));
#594=CARTESIAN_POINT('',(0.,100.,0.));
#595=CARTESIAN_POINT('Origin',(39.7,20.,0.));
#596=CARTESIAN_POINT('',(39.7,63.0714741889252,30.));
#597=CARTESIAN_POINT('',(39.7,63.0714741889252,550.));
#598=CARTESIAN_POINT('',(39.7,63.0714741889252,0.));
#599=CARTESIAN_POINT('',(39.7,20.,550.));
#600=CARTESIAN_POINT('',(39.7,63.0714741889252,550.));
#601=CARTESIAN_POINT('',(39.7,20.,30.));
#602=CARTESIAN_POINT('',(39.7,20.,0.));
#603=CARTESIAN_POINT('',(39.7,40.,30.));
#604=CARTESIAN_POINT('Origin',(39.7,63.0714741889252,0.));
#605=CARTESIAN_POINT('',(29.55,63.0714741889252,30.));
#606=CARTESIAN_POINT('',(29.55,63.0714741889252,550.));
#607=CARTESIAN_POINT('',(29.55,63.0714741889252,0.));
#608=CARTESIAN_POINT('',(29.55,63.0714741889252,550.));
#609=CARTESIAN_POINT('',(57.275,63.0714741889252,30.));
#610=CARTESIAN_POINT('Origin',(29.55,63.0714741889252,0.));
#611=CARTESIAN_POINT('',(29.55,73.3714741889252,30.));
#612=CARTESIAN_POINT('',(29.55,73.3714741889252,550.));
#613=CARTESIAN_POINT('',(29.55,73.3714741889252,0.));
#614=CARTESIAN_POINT('',(29.55,73.3714741889252,550.));
#615=CARTESIAN_POINT('',(29.55,61.5357370944626,30.));
#616=CARTESIAN_POINT('Origin',(29.55,73.3714741889252,0.));
#617=CARTESIAN_POINT('',(39.85,73.3714741889252,30.));
#618=CARTESIAN_POINT('',(39.85,73.3714741889252,550.));
#619=CARTESIAN_POINT('',(39.85,73.3714741889252,0.));
#620=CARTESIAN_POINT('',(39.85,73.3714741889252,550.));
#621=CARTESIAN_POINT('',(52.2,73.3714741889252,30.));
#622=CARTESIAN_POINT('Origin',(39.85,73.3714741889252,0.));
#623=CARTESIAN_POINT('',(39.85,100.,30.));
#624=CARTESIAN_POINT('',(39.85,100.,550.));
#625=CARTESIAN_POINT('',(39.85,100.,0.));
#626=CARTESIAN_POINT('',(39.85,100.,550.));
#627=CARTESIAN_POINT('',(39.85,66.6857370944626,30.));
#628=CARTESIAN_POINT('Origin',(150.,100.,0.));
#629=CARTESIAN_POINT('',(-20.,100.,500.));
#630=CARTESIAN_POINT('',(0.,100.,500.));
#631=CARTESIAN_POINT('',(-20.,100.,550.));
#632=CARTESIAN_POINT('',(-20.,100.,500.));
#633=CARTESIAN_POINT('',(150.,100.,550.));
#634=CARTESIAN_POINT('',(110.15,100.,30.));
#635=CARTESIAN_POINT('',(150.,100.,30.));
#636=CARTESIAN_POINT('',(110.15,100.,550.));
#637=CARTESIAN_POINT('',(110.15,100.,0.));
#638=CARTESIAN_POINT('',(170.,100.,550.));
#639=CARTESIAN_POINT('',(150.,100.,550.));
#640=CARTESIAN_POINT('',(170.,100.,500.));
#641=CARTESIAN_POINT('',(170.,100.,500.));
#642=CARTESIAN_POINT('',(150.,100.,500.));
#643=CARTESIAN_POINT('',(150.,100.,500.));
#644=CARTESIAN_POINT('',(150.,100.,0.));
#645=CARTESIAN_POINT('',(150.,100.,0.));
#646=CARTESIAN_POINT('',(150.,100.,0.));
#647=CARTESIAN_POINT('Origin',(0.,100.,500.));
#648=CARTESIAN_POINT('',(-20.,0.,500.));
#649=CARTESIAN_POINT('',(0.,0.,500.));
#650=CARTESIAN_POINT('',(-20.,0.,500.));
#651=CARTESIAN_POINT('Origin',(-20.,50.,525.));
#652=CARTESIAN_POINT('',(-20.,0.,550.));
#653=CARTESIAN_POINT('',(-20.,0.,550.));
#654=CARTESIAN_POINT('',(-20.,100.,550.));
#655=CARTESIAN_POINT('Origin',(75.,50.,550.));
#656=CARTESIAN_POINT('',(170.,0.,550.));
#657=CARTESIAN_POINT('',(0.,0.,550.));
#658=CARTESIAN_POINT('',(170.,100.,550.));
#659=CARTESIAN_POINT('',(110.15,73.3714741889252,550.));
#660=CARTESIAN_POINT('',(110.15,100.,550.));
#661=CARTESIAN_POINT('',(120.15,73.3714741889252,550.));
#662=CARTESIAN_POINT('',(110.15,73.3714741889252,550.));
#663=CARTESIAN_POINT('',(120.15,63.0714741889252,550.));
#664=CARTESIAN_POINT('',(120.15,73.3714741889252,550.));
#665=CARTESIAN_POINT('',(110.,63.0714741889252,550.));
#666=CARTESIAN_POINT('',(120.15,63.0714741889252,550.));
#667=CARTESIAN_POINT('',(110.,20.,550.));
#668=CARTESIAN_POINT('',(110.,63.0714741889252,550.));
#669=CARTESIAN_POINT('',(39.7,20.,550.));
#670=CARTESIAN_POINT('Origin',(170.,50.,525.));
#671=CARTESIAN_POINT('',(170.,0.,500.));
#672=CARTESIAN_POINT('',(170.,0.,550.));
#673=CARTESIAN_POINT('',(170.,0.,500.));
#674=CARTESIAN_POINT('Origin',(150.,0.,500.));
#675=CARTESIAN_POINT('',(150.,0.,500.));
#676=CARTESIAN_POINT('',(150.,0.,500.));
#677=CARTESIAN_POINT('',(150.,0.,500.));
#678=CARTESIAN_POINT('Origin',(120.15,63.0714741889252,0.));
#679=CARTESIAN_POINT('',(120.15,63.0714741889252,30.));
#680=CARTESIAN_POINT('',(120.15,63.0714741889252,0.));
#681=CARTESIAN_POINT('',(110.,63.0714741889252,30.));
#682=CARTESIAN_POINT('',(97.5,63.0714741889252,30.));
#683=CARTESIAN_POINT('',(110.,63.0714741889252,0.));
#684=CARTESIAN_POINT('Origin',(120.15,73.3714741889252,0.));
#685=CARTESIAN_POINT('',(120.15,73.3714741889252,30.));
#686=CARTESIAN_POINT('',(120.15,73.3714741889252,0.));
#687=CARTESIAN_POINT('',(120.15,66.6857370944626,30.));
#688=CARTESIAN_POINT('Origin',(110.15,73.3714741889252,0.));
#689=CARTESIAN_POINT('',(110.15,73.3714741889252,30.));
#690=CARTESIAN_POINT('',(110.15,73.3714741889252,0.));
#691=CARTESIAN_POINT('',(92.5,73.3714741889252,30.));
#692=CARTESIAN_POINT('Origin',(110.15,100.,0.));
#693=CARTESIAN_POINT('',(110.15,80.,30.));
#694=CARTESIAN_POINT('Origin',(150.,0.,0.));
#695=CARTESIAN_POINT('',(150.,0.,0.));
#696=CARTESIAN_POINT('',(150.,0.,0.));
#697=CARTESIAN_POINT('',(150.,0.,0.));
#698=CARTESIAN_POINT('Origin',(74.85,60.,30.));
#699=CARTESIAN_POINT('',(110.,20.,30.));
#700=CARTESIAN_POINT('',(92.425,20.,30.));
#701=CARTESIAN_POINT('',(110.,61.5357370944626,30.));
#702=CARTESIAN_POINT('Origin',(110.,63.0714741889252,0.));
#703=CARTESIAN_POINT('',(110.,20.,0.));
#704=CARTESIAN_POINT('Origin',(110.,20.,0.));
#705=CARTESIAN_POINT('Origin',(75.,50.,0.));
#706=CARTESIAN_POINT('',(0.,0.,0.));
#707=CARTESIAN_POINT('Origin',(0.,0.,0.));
#708=UNCERTAINTY_MEASURE_WITH_UNIT(LENGTH_MEASURE(0.01),#712,
'DISTANCE_ACCURACY_VALUE',
'Maximum model space distance between geometric entities at asserted c
onnectivities');
#709=UNCERTAINTY_MEASURE_WITH_UNIT(LENGTH_MEASURE(0.01),#712,
'DISTANCE_ACCURACY_VALUE',
'Maximum model space distance between geometric entities at asserted c
onnectivities');
#710=(
GEOMETRIC_REPRESENTATION_CONTEXT(3)
GLOBAL_UNCERTAINTY_ASSIGNED_CONTEXT((#708))
GLOBAL_UNIT_ASSIGNED_CONTEXT((#712,#714,#715))
REPRESENTATION_CONTEXT('','3D')
);
#711=(
GEOMETRIC_REPRESENTATION_CONTEXT(3)
GLOBAL_UNCERTAINTY_ASSIGNED_CONTEXT((#709))
GLOBAL_UNIT_ASSIGNED_CONTEXT((#712,#714,#715))
REPRESENTATION_CONTEXT('','3D')
);
#712=(
LENGTH_UNIT()
NAMED_UNIT(*)
SI_UNIT(.MILLI.,.METRE.)
);
#713=(
LENGTH_UNIT()
NAMED_UNIT(*)
SI_UNIT($,.METRE.)
);
#714=(
NAMED_UNIT(*)
PLANE_ANGLE_UNIT()
SI_UNIT($,.RADIAN.)
);
#715=(
NAMED_UNIT(*)
SI_UNIT($,.STERADIAN.)
SOLID_ANGLE_UNIT()
);
#716=SHAPE_DEFINITION_REPRESENTATION(#717,#718);
#717=PRODUCT_DEFINITION_SHAPE('',$,#720);
#718=SHAPE_REPRESENTATION('',(#456),#710);
#719=PRODUCT_DEFINITION_CONTEXT('part definition',#724,'design');
#720=PRODUCT_DEFINITION('2026-07-07-18-05-53-422',
'seatbelt_outer_frame',#721,#719);
#721=PRODUCT_DEFINITION_FORMATION('',$,#726);
#722=PRODUCT_RELATED_PRODUCT_CATEGORY('seatbelt_outer_frame',
'seatbelt_outer_frame',(#726));
#723=APPLICATION_PROTOCOL_DEFINITION('international standard',
'automotive_design',2009,#724);
#724=APPLICATION_CONTEXT(
'Core Data for Automotive Mechanical Design Process');
#725=PRODUCT_CONTEXT('part definition',#724,'mechanical');
#726=PRODUCT('2026-07-07-18-05-53-422','seatbelt_outer_frame',$,(#725));
#727=PRESENTATION_STYLE_ASSIGNMENT((#728));
#728=SURFACE_STYLE_USAGE(.BOTH.,#729);
#729=SURFACE_SIDE_STYLE('',(#730));
#730=SURFACE_STYLE_FILL_AREA(#731);
#731=FILL_AREA_STYLE('Steel - Satin',(#732));
#732=FILL_AREA_STYLE_COLOUR('Steel - Satin',#733);
#733=COLOUR_RGB('Steel - Satin',0.627450980392157,0.627450980392157,0.627450980392157);
ENDSEC;
END-ISO-10303-21;
