ISO-10303-21;
HEADER;
/* Generated by software containing ST-Developer
 * from STEP Tools, Inc. (www.steptools.com) 
 */

FILE_DESCRIPTION(
/* description */ (''),
/* implementation_level */ '2;1');

FILE_NAME(
/* name */ 'seat_bottom.step',
/* time_stamp */ '2026-08-14T19:15:49+09:00',
/* author */ (''),
/* organization */ (''),
/* preprocessor_version */ 'ST-DEVELOPER v20.1',
/* originating_system */ 'Autodesk Translation Framework v15.8.0.0',
/* authorisation */ '');

FILE_SCHEMA (('AUTOMOTIVE_DESIGN { 1 0 10303 214 3 1 1 }'));
ENDSEC;

DATA;
#10=MECHANICAL_DESIGN_GEOMETRIC_PRESENTATION_REPRESENTATION('',(#13,#14),
#1406);
#11=SHAPE_REPRESENTATION_RELATIONSHIP('SRR','None',#1413,#12);
#12=ADVANCED_BREP_SHAPE_REPRESENTATION('',(#15,#16),#1405);
#13=STYLED_ITEM('',(#1422),#15);
#14=STYLED_ITEM('',(#1422),#16);
#15=MANIFOLD_SOLID_BREP('Body2',#857);
#16=MANIFOLD_SOLID_BREP('Body3',#858);
#17=PLANE('',#875);
#18=PLANE('',#882);
#19=PLANE('',#886);
#20=PLANE('',#887);
#21=PLANE('',#888);
#22=PLANE('',#889);
#23=PLANE('',#890);
#24=PLANE('',#891);
#25=PLANE('',#892);
#26=PLANE('',#893);
#27=PLANE('',#894);
#28=PLANE('',#895);
#29=PLANE('',#896);
#30=PLANE('',#897);
#31=PLANE('',#898);
#32=PLANE('',#899);
#33=PLANE('',#900);
#34=PLANE('',#901);
#35=PLANE('',#902);
#36=PLANE('',#903);
#37=PLANE('',#904);
#38=PLANE('',#905);
#39=PLANE('',#908);
#40=PLANE('',#909);
#41=PLANE('',#910);
#42=PLANE('',#913);
#43=PLANE('',#914);
#44=PLANE('',#917);
#45=PLANE('',#918);
#46=PLANE('',#919);
#47=PLANE('',#922);
#48=PLANE('',#923);
#49=PLANE('',#925);
#50=PLANE('',#927);
#51=PLANE('',#928);
#52=PLANE('',#930);
#53=FACE_OUTER_BOUND('',#97,.T.);
#54=FACE_OUTER_BOUND('',#98,.T.);
#55=FACE_OUTER_BOUND('',#99,.T.);
#56=FACE_OUTER_BOUND('',#100,.T.);
#57=FACE_OUTER_BOUND('',#101,.T.);
#58=FACE_OUTER_BOUND('',#102,.T.);
#59=FACE_OUTER_BOUND('',#103,.T.);
#60=FACE_OUTER_BOUND('',#104,.T.);
#61=FACE_OUTER_BOUND('',#105,.T.);
#62=FACE_OUTER_BOUND('',#106,.T.);
#63=FACE_OUTER_BOUND('',#107,.T.);
#64=FACE_OUTER_BOUND('',#108,.T.);
#65=FACE_OUTER_BOUND('',#109,.T.);
#66=FACE_OUTER_BOUND('',#110,.T.);
#67=FACE_OUTER_BOUND('',#111,.T.);
#68=FACE_OUTER_BOUND('',#112,.T.);
#69=FACE_OUTER_BOUND('',#113,.T.);
#70=FACE_OUTER_BOUND('',#114,.T.);
#71=FACE_OUTER_BOUND('',#115,.T.);
#72=FACE_OUTER_BOUND('',#116,.T.);
#73=FACE_OUTER_BOUND('',#117,.T.);
#74=FACE_OUTER_BOUND('',#118,.T.);
#75=FACE_OUTER_BOUND('',#119,.T.);
#76=FACE_OUTER_BOUND('',#120,.T.);
#77=FACE_OUTER_BOUND('',#121,.T.);
#78=FACE_OUTER_BOUND('',#122,.T.);
#79=FACE_OUTER_BOUND('',#123,.T.);
#80=FACE_OUTER_BOUND('',#124,.T.);
#81=FACE_OUTER_BOUND('',#125,.T.);
#82=FACE_OUTER_BOUND('',#126,.T.);
#83=FACE_OUTER_BOUND('',#127,.T.);
#84=FACE_OUTER_BOUND('',#128,.T.);
#85=FACE_OUTER_BOUND('',#129,.T.);
#86=FACE_OUTER_BOUND('',#130,.T.);
#87=FACE_OUTER_BOUND('',#131,.T.);
#88=FACE_OUTER_BOUND('',#132,.T.);
#89=FACE_OUTER_BOUND('',#133,.T.);
#90=FACE_OUTER_BOUND('',#134,.T.);
#91=FACE_OUTER_BOUND('',#135,.T.);
#92=FACE_OUTER_BOUND('',#136,.T.);
#93=FACE_OUTER_BOUND('',#137,.T.);
#94=FACE_OUTER_BOUND('',#138,.T.);
#95=FACE_OUTER_BOUND('',#139,.T.);
#96=FACE_OUTER_BOUND('',#140,.T.);
#97=EDGE_LOOP('',(#565,#566,#567,#568));
#98=EDGE_LOOP('',(#569,#570,#571,#572));
#99=EDGE_LOOP('',(#573,#574,#575,#576));
#100=EDGE_LOOP('',(#577,#578,#579,#580));
#101=EDGE_LOOP('',(#581,#582,#583,#584));
#102=EDGE_LOOP('',(#585,#586,#587,#588));
#103=EDGE_LOOP('',(#589,#590,#591,#592,#593,#594));
#104=EDGE_LOOP('',(#595,#596,#597,#598,#599,#600));
#105=EDGE_LOOP('',(#601,#602,#603,#604,#605,#606));
#106=EDGE_LOOP('',(#607,#608,#609,#610));
#107=EDGE_LOOP('',(#611,#612,#613,#614,#615,#616,#617,#618,#619,#620));
#108=EDGE_LOOP('',(#621,#622,#623,#624));
#109=EDGE_LOOP('',(#625,#626,#627,#628,#629,#630));
#110=EDGE_LOOP('',(#631,#632,#633,#634,#635,#636));
#111=EDGE_LOOP('',(#637,#638,#639,#640));
#112=EDGE_LOOP('',(#641,#642,#643,#644,#645,#646));
#113=EDGE_LOOP('',(#647,#648,#649,#650,#651,#652));
#114=EDGE_LOOP('',(#653,#654,#655,#656,#657,#658));
#115=EDGE_LOOP('',(#659,#660,#661,#662));
#116=EDGE_LOOP('',(#663,#664,#665,#666,#667,#668,#669,#670,#671,#672));
#117=EDGE_LOOP('',(#673,#674,#675,#676));
#118=EDGE_LOOP('',(#677,#678,#679,#680,#681,#682,#683,#684));
#119=EDGE_LOOP('',(#685,#686,#687,#688));
#120=EDGE_LOOP('',(#689,#690,#691,#692,#693,#694,#695,#696));
#121=EDGE_LOOP('',(#697,#698,#699,#700));
#122=EDGE_LOOP('',(#701,#702,#703,#704,#705,#706,#707,#708,#709,#710));
#123=EDGE_LOOP('',(#711,#712,#713,#714));
#124=EDGE_LOOP('',(#715,#716,#717,#718,#719,#720));
#125=EDGE_LOOP('',(#721,#722,#723,#724,#725,#726));
#126=EDGE_LOOP('',(#727,#728,#729,#730,#731,#732));
#127=EDGE_LOOP('',(#733,#734,#735,#736,#737,#738));
#128=EDGE_LOOP('',(#739,#740,#741,#742));
#129=EDGE_LOOP('',(#743,#744,#745,#746,#747,#748));
#130=EDGE_LOOP('',(#749,#750,#751,#752,#753,#754,#755,#756,#757,#758));
#131=EDGE_LOOP('',(#759,#760,#761,#762,#763,#764));
#132=EDGE_LOOP('',(#765,#766,#767,#768));
#133=EDGE_LOOP('',(#769,#770,#771,#772));
#134=EDGE_LOOP('',(#773,#774,#775,#776));
#135=EDGE_LOOP('',(#777,#778,#779,#780));
#136=EDGE_LOOP('',(#781,#782,#783,#784,#785,#786));
#137=EDGE_LOOP('',(#787,#788,#789,#790,#791,#792));
#138=EDGE_LOOP('',(#793,#794,#795,#796));
#139=EDGE_LOOP('',(#797,#798,#799,#800));
#140=EDGE_LOOP('',(#801,#802,#803,#804));
#141=CIRCLE('',#873,30.);
#142=CIRCLE('',#874,30.);
#143=CIRCLE('',#877,30.);
#144=CIRCLE('',#878,30.);
#145=CIRCLE('',#880,25.);
#146=CIRCLE('',#881,25.);
#147=CIRCLE('',#884,25.);
#148=CIRCLE('',#885,25.);
#149=CIRCLE('',#906,25.);
#150=CIRCLE('',#907,25.);
#151=CIRCLE('',#911,25.);
#152=CIRCLE('',#912,25.);
#153=CIRCLE('',#915,30.);
#154=CIRCLE('',#916,30.);
#155=CIRCLE('',#920,30.);
#156=CIRCLE('',#921,30.);
#157=LINE('',#1162,#261);
#158=LINE('',#1166,#262);
#159=LINE('',#1170,#263);
#160=LINE('',#1172,#264);
#161=LINE('',#1173,#265);
#162=LINE('',#1178,#266);
#163=LINE('',#1183,#267);
#164=LINE('',#1187,#268);
#165=LINE('',#1191,#269);
#166=LINE('',#1193,#270);
#167=LINE('',#1194,#271);
#168=LINE('',#1199,#272);
#169=LINE('',#1204,#273);
#170=LINE('',#1205,#274);
#171=LINE('',#1207,#275);
#172=LINE('',#1209,#276);
#173=LINE('',#1210,#277);
#174=LINE('',#1214,#278);
#175=LINE('',#1216,#279);
#176=LINE('',#1218,#280);
#177=LINE('',#1219,#281);
#178=LINE('',#1220,#282);
#179=LINE('',#1223,#283);
#180=LINE('',#1225,#284);
#181=LINE('',#1227,#285);
#182=LINE('',#1229,#286);
#183=LINE('',#1230,#287);
#184=LINE('',#1234,#288);
#185=LINE('',#1235,#289);
#186=LINE('',#1236,#290);
#187=LINE('',#1239,#291);
#188=LINE('',#1241,#292);
#189=LINE('',#1242,#293);
#190=LINE('',#1245,#294);
#191=LINE('',#1247,#295);
#192=LINE('',#1248,#296);
#193=LINE('',#1251,#297);
#194=LINE('',#1253,#298);
#195=LINE('',#1254,#299);
#196=LINE('',#1256,#300);
#197=LINE('',#1259,#301);
#198=LINE('',#1260,#302);
#199=LINE('',#1263,#303);
#200=LINE('',#1264,#304);
#201=LINE('',#1265,#305);
#202=LINE('',#1268,#306);
#203=LINE('',#1269,#307);
#204=LINE('',#1271,#308);
#205=LINE('',#1272,#309);
#206=LINE('',#1275,#310);
#207=LINE('',#1276,#311);
#208=LINE('',#1278,#312);
#209=LINE('',#1284,#313);
#210=LINE('',#1286,#314);
#211=LINE('',#1288,#315);
#212=LINE('',#1289,#316);
#213=LINE('',#1293,#317);
#214=LINE('',#1295,#318);
#215=LINE('',#1297,#319);
#216=LINE('',#1299,#320);
#217=LINE('',#1301,#321);
#218=LINE('',#1303,#322);
#219=LINE('',#1305,#323);
#220=LINE('',#1306,#324);
#221=LINE('',#1309,#325);
#222=LINE('',#1311,#326);
#223=LINE('',#1312,#327);
#224=LINE('',#1315,#328);
#225=LINE('',#1317,#329);
#226=LINE('',#1319,#330);
#227=LINE('',#1323,#331);
#228=LINE('',#1327,#332);
#229=LINE('',#1328,#333);
#230=LINE('',#1331,#334);
#231=LINE('',#1333,#335);
#232=LINE('',#1334,#336);
#233=LINE('',#1337,#337);
#234=LINE('',#1338,#338);
#235=LINE('',#1339,#339);
#236=LINE('',#1342,#340);
#237=LINE('',#1346,#341);
#238=LINE('',#1350,#342);
#239=LINE('',#1351,#343);
#240=LINE('',#1352,#344);
#241=LINE('',#1355,#345);
#242=LINE('',#1359,#346);
#243=LINE('',#1362,#347);
#244=LINE('',#1365,#348);
#245=LINE('',#1366,#349);
#246=LINE('',#1369,#350);
#247=LINE('',#1370,#351);
#248=LINE('',#1373,#352);
#249=LINE('',#1375,#353);
#250=LINE('',#1379,#354);
#251=LINE('',#1382,#355);
#252=LINE('',#1385,#356);
#253=LINE('',#1386,#357);
#254=LINE('',#1388,#358);
#255=LINE('',#1390,#359);
#256=LINE('',#1392,#360);
#257=LINE('',#1395,#361);
#258=LINE('',#1397,#362);
#259=LINE('',#1399,#363);
#260=LINE('',#1401,#364);
#261=VECTOR('',#936,10.);
#262=VECTOR('',#939,10.);
#263=VECTOR('',#944,10.);
#264=VECTOR('',#945,10.);
#265=VECTOR('',#946,10.);
#266=VECTOR('',#951,10.);
#267=VECTOR('',#956,10.);
#268=VECTOR('',#959,10.);
#269=VECTOR('',#964,10.);
#270=VECTOR('',#965,10.);
#271=VECTOR('',#966,10.);
#272=VECTOR('',#971,10.);
#273=VECTOR('',#976,10.);
#274=VECTOR('',#977,10.);
#275=VECTOR('',#978,10.);
#276=VECTOR('',#979,10.);
#277=VECTOR('',#980,10.);
#278=VECTOR('',#983,10.);
#279=VECTOR('',#984,10.);
#280=VECTOR('',#985,10.);
#281=VECTOR('',#986,10.);
#282=VECTOR('',#987,10.);
#283=VECTOR('',#990,10.);
#284=VECTOR('',#991,10.);
#285=VECTOR('',#992,10.);
#286=VECTOR('',#993,10.);
#287=VECTOR('',#994,10.);
#288=VECTOR('',#997,10.);
#289=VECTOR('',#998,10.);
#290=VECTOR('',#999,10.);
#291=VECTOR('',#1002,10.);
#292=VECTOR('',#1003,10.);
#293=VECTOR('',#1004,10.);
#294=VECTOR('',#1007,10.);
#295=VECTOR('',#1008,10.);
#296=VECTOR('',#1009,10.);
#297=VECTOR('',#1012,10.);
#298=VECTOR('',#1013,10.);
#299=VECTOR('',#1014,10.);
#300=VECTOR('',#1017,10.);
#301=VECTOR('',#1020,10.);
#302=VECTOR('',#1021,10.);
#303=VECTOR('',#1024,10.);
#304=VECTOR('',#1025,10.);
#305=VECTOR('',#1026,10.);
#306=VECTOR('',#1029,10.);
#307=VECTOR('',#1030,10.);
#308=VECTOR('',#1033,10.);
#309=VECTOR('',#1034,10.);
#310=VECTOR('',#1037,10.);
#311=VECTOR('',#1038,10.);
#312=VECTOR('',#1041,10.);
#313=VECTOR('',#1048,10.);
#314=VECTOR('',#1049,10.);
#315=VECTOR('',#1050,10.);
#316=VECTOR('',#1051,10.);
#317=VECTOR('',#1054,10.);
#318=VECTOR('',#1055,10.);
#319=VECTOR('',#1056,10.);
#320=VECTOR('',#1057,10.);
#321=VECTOR('',#1058,10.);
#322=VECTOR('',#1059,10.);
#323=VECTOR('',#1060,10.);
#324=VECTOR('',#1061,10.);
#325=VECTOR('',#1064,10.);
#326=VECTOR('',#1065,10.);
#327=VECTOR('',#1066,10.);
#328=VECTOR('',#1069,10.);
#329=VECTOR('',#1070,10.);
#330=VECTOR('',#1071,10.);
#331=VECTOR('',#1074,10.);
#332=VECTOR('',#1077,10.);
#333=VECTOR('',#1078,10.);
#334=VECTOR('',#1081,10.);
#335=VECTOR('',#1082,10.);
#336=VECTOR('',#1083,10.);
#337=VECTOR('',#1086,10.);
#338=VECTOR('',#1087,10.);
#339=VECTOR('',#1088,10.);
#340=VECTOR('',#1091,10.);
#341=VECTOR('',#1094,10.);
#342=VECTOR('',#1099,10.);
#343=VECTOR('',#1100,10.);
#344=VECTOR('',#1101,10.);
#345=VECTOR('',#1104,10.);
#346=VECTOR('',#1107,10.);
#347=VECTOR('',#1110,10.);
#348=VECTOR('',#1113,10.);
#349=VECTOR('',#1114,10.);
#350=VECTOR('',#1117,10.);
#351=VECTOR('',#1118,10.);
#352=VECTOR('',#1121,10.);
#353=VECTOR('',#1122,10.);
#354=VECTOR('',#1125,10.);
#355=VECTOR('',#1128,10.);
#356=VECTOR('',#1131,10.);
#357=VECTOR('',#1132,10.);
#358=VECTOR('',#1135,10.);
#359=VECTOR('',#1138,10.);
#360=VECTOR('',#1141,10.);
#361=VECTOR('',#1146,10.);
#362=VECTOR('',#1149,10.);
#363=VECTOR('',#1152,10.);
#364=VECTOR('',#1155,10.);
#365=VERTEX_POINT('',#1160);
#366=VERTEX_POINT('',#1161);
#367=VERTEX_POINT('',#1163);
#368=VERTEX_POINT('',#1165);
#369=VERTEX_POINT('',#1169);
#370=VERTEX_POINT('',#1171);
#371=VERTEX_POINT('',#1175);
#372=VERTEX_POINT('',#1177);
#373=VERTEX_POINT('',#1181);
#374=VERTEX_POINT('',#1182);
#375=VERTEX_POINT('',#1184);
#376=VERTEX_POINT('',#1186);
#377=VERTEX_POINT('',#1190);
#378=VERTEX_POINT('',#1192);
#379=VERTEX_POINT('',#1196);
#380=VERTEX_POINT('',#1198);
#381=VERTEX_POINT('',#1202);
#382=VERTEX_POINT('',#1203);
#383=VERTEX_POINT('',#1206);
#384=VERTEX_POINT('',#1208);
#385=VERTEX_POINT('',#1212);
#386=VERTEX_POINT('',#1213);
#387=VERTEX_POINT('',#1215);
#388=VERTEX_POINT('',#1217);
#389=VERTEX_POINT('',#1222);
#390=VERTEX_POINT('',#1224);
#391=VERTEX_POINT('',#1226);
#392=VERTEX_POINT('',#1228);
#393=VERTEX_POINT('',#1232);
#394=VERTEX_POINT('',#1233);
#395=VERTEX_POINT('',#1238);
#396=VERTEX_POINT('',#1240);
#397=VERTEX_POINT('',#1244);
#398=VERTEX_POINT('',#1246);
#399=VERTEX_POINT('',#1250);
#400=VERTEX_POINT('',#1252);
#401=VERTEX_POINT('',#1258);
#402=VERTEX_POINT('',#1262);
#403=VERTEX_POINT('',#1267);
#404=VERTEX_POINT('',#1274);
#405=VERTEX_POINT('',#1282);
#406=VERTEX_POINT('',#1283);
#407=VERTEX_POINT('',#1285);
#408=VERTEX_POINT('',#1287);
#409=VERTEX_POINT('',#1291);
#410=VERTEX_POINT('',#1292);
#411=VERTEX_POINT('',#1294);
#412=VERTEX_POINT('',#1296);
#413=VERTEX_POINT('',#1298);
#414=VERTEX_POINT('',#1300);
#415=VERTEX_POINT('',#1302);
#416=VERTEX_POINT('',#1304);
#417=VERTEX_POINT('',#1308);
#418=VERTEX_POINT('',#1310);
#419=VERTEX_POINT('',#1314);
#420=VERTEX_POINT('',#1316);
#421=VERTEX_POINT('',#1318);
#422=VERTEX_POINT('',#1320);
#423=VERTEX_POINT('',#1322);
#424=VERTEX_POINT('',#1324);
#425=VERTEX_POINT('',#1326);
#426=VERTEX_POINT('',#1330);
#427=VERTEX_POINT('',#1332);
#428=VERTEX_POINT('',#1336);
#429=VERTEX_POINT('',#1341);
#430=VERTEX_POINT('',#1343);
#431=VERTEX_POINT('',#1345);
#432=VERTEX_POINT('',#1349);
#433=VERTEX_POINT('',#1354);
#434=VERTEX_POINT('',#1356);
#435=VERTEX_POINT('',#1358);
#436=VERTEX_POINT('',#1360);
#437=VERTEX_POINT('',#1364);
#438=VERTEX_POINT('',#1368);
#439=VERTEX_POINT('',#1372);
#440=VERTEX_POINT('',#1374);
#441=VERTEX_POINT('',#1376);
#442=VERTEX_POINT('',#1378);
#443=VERTEX_POINT('',#1380);
#444=VERTEX_POINT('',#1384);
#445=EDGE_CURVE('',#365,#366,#157,.T.);
#446=EDGE_CURVE('',#367,#366,#141,.T.);
#447=EDGE_CURVE('',#368,#367,#158,.T.);
#448=EDGE_CURVE('',#368,#365,#142,.T.);
#449=EDGE_CURVE('',#369,#367,#159,.T.);
#450=EDGE_CURVE('',#370,#369,#160,.T.);
#451=EDGE_CURVE('',#370,#368,#161,.T.);
#452=EDGE_CURVE('',#371,#369,#143,.T.);
#453=EDGE_CURVE('',#372,#371,#162,.T.);
#454=EDGE_CURVE('',#372,#370,#144,.T.);
#455=EDGE_CURVE('',#373,#374,#163,.T.);
#456=EDGE_CURVE('',#374,#375,#145,.F.);
#457=EDGE_CURVE('',#376,#375,#164,.T.);
#458=EDGE_CURVE('',#373,#376,#146,.F.);
#459=EDGE_CURVE('',#375,#377,#165,.F.);
#460=EDGE_CURVE('',#378,#377,#166,.T.);
#461=EDGE_CURVE('',#376,#378,#167,.F.);
#462=EDGE_CURVE('',#377,#379,#147,.F.);
#463=EDGE_CURVE('',#380,#379,#168,.T.);
#464=EDGE_CURVE('',#378,#380,#148,.F.);
#465=EDGE_CURVE('',#381,#382,#169,.T.);
#466=EDGE_CURVE('',#380,#381,#170,.F.);
#467=EDGE_CURVE('',#379,#383,#171,.F.);
#468=EDGE_CURVE('',#383,#384,#172,.T.);
#469=EDGE_CURVE('',#384,#382,#173,.T.);
#470=EDGE_CURVE('',#385,#386,#174,.T.);
#471=EDGE_CURVE('',#385,#387,#175,.T.);
#472=EDGE_CURVE('',#387,#388,#176,.T.);
#473=EDGE_CURVE('',#388,#374,#177,.F.);
#474=EDGE_CURVE('',#386,#373,#178,.F.);
#475=EDGE_CURVE('',#389,#383,#179,.T.);
#476=EDGE_CURVE('',#389,#390,#180,.T.);
#477=EDGE_CURVE('',#391,#390,#181,.T.);
#478=EDGE_CURVE('',#392,#391,#182,.T.);
#479=EDGE_CURVE('',#392,#384,#183,.T.);
#480=EDGE_CURVE('',#393,#394,#184,.T.);
#481=EDGE_CURVE('',#390,#393,#185,.T.);
#482=EDGE_CURVE('',#394,#389,#186,.T.);
#483=EDGE_CURVE('',#394,#395,#187,.T.);
#484=EDGE_CURVE('',#388,#396,#188,.T.);
#485=EDGE_CURVE('',#396,#395,#189,.T.);
#486=EDGE_CURVE('',#397,#385,#190,.T.);
#487=EDGE_CURVE('',#398,#397,#191,.T.);
#488=EDGE_CURVE('',#398,#387,#192,.T.);
#489=EDGE_CURVE('',#399,#398,#193,.T.);
#490=EDGE_CURVE('',#400,#399,#194,.T.);
#491=EDGE_CURVE('',#400,#396,#195,.T.);
#492=EDGE_CURVE('',#386,#381,#196,.T.);
#493=EDGE_CURVE('',#382,#401,#197,.T.);
#494=EDGE_CURVE('',#401,#392,#198,.T.);
#495=EDGE_CURVE('',#401,#402,#199,.T.);
#496=EDGE_CURVE('',#366,#391,#200,.T.);
#497=EDGE_CURVE('',#365,#402,#201,.T.);
#498=EDGE_CURVE('',#402,#403,#202,.T.);
#499=EDGE_CURVE('',#403,#372,#203,.T.);
#500=EDGE_CURVE('',#403,#397,#204,.T.);
#501=EDGE_CURVE('',#399,#371,#205,.T.);
#502=EDGE_CURVE('',#395,#404,#206,.T.);
#503=EDGE_CURVE('',#404,#400,#207,.T.);
#504=EDGE_CURVE('',#404,#393,#208,.T.);
#505=EDGE_CURVE('',#405,#406,#209,.T.);
#506=EDGE_CURVE('',#407,#405,#210,.T.);
#507=EDGE_CURVE('',#408,#407,#211,.T.);
#508=EDGE_CURVE('',#406,#408,#212,.T.);
#509=EDGE_CURVE('',#409,#410,#213,.T.);
#510=EDGE_CURVE('',#411,#409,#214,.T.);
#511=EDGE_CURVE('',#412,#411,#215,.T.);
#512=EDGE_CURVE('',#413,#412,#216,.T.);
#513=EDGE_CURVE('',#414,#413,#217,.T.);
#514=EDGE_CURVE('',#415,#414,#218,.T.);
#515=EDGE_CURVE('',#416,#415,#219,.T.);
#516=EDGE_CURVE('',#410,#416,#220,.T.);
#517=EDGE_CURVE('',#417,#407,#221,.T.);
#518=EDGE_CURVE('',#418,#417,#222,.T.);
#519=EDGE_CURVE('',#408,#418,#223,.T.);
#520=EDGE_CURVE('',#405,#419,#224,.T.);
#521=EDGE_CURVE('',#419,#420,#225,.T.);
#522=EDGE_CURVE('',#421,#420,#226,.F.);
#523=EDGE_CURVE('',#422,#421,#149,.F.);
#524=EDGE_CURVE('',#423,#422,#227,.F.);
#525=EDGE_CURVE('',#424,#423,#150,.F.);
#526=EDGE_CURVE('',#425,#424,#228,.F.);
#527=EDGE_CURVE('',#425,#417,#229,.T.);
#528=EDGE_CURVE('',#426,#413,#230,.T.);
#529=EDGE_CURVE('',#427,#426,#231,.T.);
#530=EDGE_CURVE('',#414,#427,#232,.T.);
#531=EDGE_CURVE('',#428,#412,#233,.F.);
#532=EDGE_CURVE('',#428,#421,#234,.T.);
#533=EDGE_CURVE('',#420,#426,#235,.T.);
#534=EDGE_CURVE('',#411,#429,#236,.F.);
#535=EDGE_CURVE('',#429,#430,#151,.F.);
#536=EDGE_CURVE('',#430,#431,#237,.F.);
#537=EDGE_CURVE('',#431,#428,#152,.F.);
#538=EDGE_CURVE('',#409,#432,#238,.T.);
#539=EDGE_CURVE('',#432,#425,#239,.T.);
#540=EDGE_CURVE('',#429,#424,#240,.T.);
#541=EDGE_CURVE('',#433,#415,#241,.T.);
#542=EDGE_CURVE('',#434,#433,#153,.T.);
#543=EDGE_CURVE('',#435,#434,#242,.T.);
#544=EDGE_CURVE('',#436,#435,#154,.T.);
#545=EDGE_CURVE('',#416,#436,#243,.T.);
#546=EDGE_CURVE('',#437,#406,#244,.T.);
#547=EDGE_CURVE('',#419,#437,#245,.T.);
#548=EDGE_CURVE('',#438,#437,#246,.T.);
#549=EDGE_CURVE('',#427,#438,#247,.T.);
#550=EDGE_CURVE('',#418,#439,#248,.T.);
#551=EDGE_CURVE('',#439,#440,#249,.T.);
#552=EDGE_CURVE('',#440,#441,#155,.T.);
#553=EDGE_CURVE('',#441,#442,#250,.T.);
#554=EDGE_CURVE('',#442,#443,#156,.T.);
#555=EDGE_CURVE('',#443,#438,#251,.T.);
#556=EDGE_CURVE('',#444,#432,#252,.T.);
#557=EDGE_CURVE('',#439,#444,#253,.T.);
#558=EDGE_CURVE('',#444,#410,#254,.T.);
#559=EDGE_CURVE('',#431,#422,#255,.T.);
#560=EDGE_CURVE('',#430,#423,#256,.T.);
#561=EDGE_CURVE('',#433,#443,#257,.T.);
#562=EDGE_CURVE('',#436,#440,#258,.T.);
#563=EDGE_CURVE('',#434,#442,#259,.T.);
#564=EDGE_CURVE('',#435,#441,#260,.T.);
#565=ORIENTED_EDGE('',*,*,#445,.T.);
#566=ORIENTED_EDGE('',*,*,#446,.F.);
#567=ORIENTED_EDGE('',*,*,#447,.F.);
#568=ORIENTED_EDGE('',*,*,#448,.T.);
#569=ORIENTED_EDGE('',*,*,#447,.T.);
#570=ORIENTED_EDGE('',*,*,#449,.F.);
#571=ORIENTED_EDGE('',*,*,#450,.F.);
#572=ORIENTED_EDGE('',*,*,#451,.T.);
#573=ORIENTED_EDGE('',*,*,#450,.T.);
#574=ORIENTED_EDGE('',*,*,#452,.F.);
#575=ORIENTED_EDGE('',*,*,#453,.F.);
#576=ORIENTED_EDGE('',*,*,#454,.T.);
#577=ORIENTED_EDGE('',*,*,#455,.T.);
#578=ORIENTED_EDGE('',*,*,#456,.T.);
#579=ORIENTED_EDGE('',*,*,#457,.F.);
#580=ORIENTED_EDGE('',*,*,#458,.F.);
#581=ORIENTED_EDGE('',*,*,#457,.T.);
#582=ORIENTED_EDGE('',*,*,#459,.T.);
#583=ORIENTED_EDGE('',*,*,#460,.F.);
#584=ORIENTED_EDGE('',*,*,#461,.F.);
#585=ORIENTED_EDGE('',*,*,#460,.T.);
#586=ORIENTED_EDGE('',*,*,#462,.T.);
#587=ORIENTED_EDGE('',*,*,#463,.F.);
#588=ORIENTED_EDGE('',*,*,#464,.F.);
#589=ORIENTED_EDGE('',*,*,#465,.F.);
#590=ORIENTED_EDGE('',*,*,#466,.F.);
#591=ORIENTED_EDGE('',*,*,#463,.T.);
#592=ORIENTED_EDGE('',*,*,#467,.T.);
#593=ORIENTED_EDGE('',*,*,#468,.T.);
#594=ORIENTED_EDGE('',*,*,#469,.T.);
#595=ORIENTED_EDGE('',*,*,#470,.F.);
#596=ORIENTED_EDGE('',*,*,#471,.T.);
#597=ORIENTED_EDGE('',*,*,#472,.T.);
#598=ORIENTED_EDGE('',*,*,#473,.T.);
#599=ORIENTED_EDGE('',*,*,#455,.F.);
#600=ORIENTED_EDGE('',*,*,#474,.F.);
#601=ORIENTED_EDGE('',*,*,#475,.F.);
#602=ORIENTED_EDGE('',*,*,#476,.T.);
#603=ORIENTED_EDGE('',*,*,#477,.F.);
#604=ORIENTED_EDGE('',*,*,#478,.F.);
#605=ORIENTED_EDGE('',*,*,#479,.T.);
#606=ORIENTED_EDGE('',*,*,#468,.F.);
#607=ORIENTED_EDGE('',*,*,#480,.F.);
#608=ORIENTED_EDGE('',*,*,#481,.F.);
#609=ORIENTED_EDGE('',*,*,#476,.F.);
#610=ORIENTED_EDGE('',*,*,#482,.F.);
#611=ORIENTED_EDGE('',*,*,#483,.F.);
#612=ORIENTED_EDGE('',*,*,#482,.T.);
#613=ORIENTED_EDGE('',*,*,#475,.T.);
#614=ORIENTED_EDGE('',*,*,#467,.F.);
#615=ORIENTED_EDGE('',*,*,#462,.F.);
#616=ORIENTED_EDGE('',*,*,#459,.F.);
#617=ORIENTED_EDGE('',*,*,#456,.F.);
#618=ORIENTED_EDGE('',*,*,#473,.F.);
#619=ORIENTED_EDGE('',*,*,#484,.T.);
#620=ORIENTED_EDGE('',*,*,#485,.T.);
#621=ORIENTED_EDGE('',*,*,#486,.F.);
#622=ORIENTED_EDGE('',*,*,#487,.F.);
#623=ORIENTED_EDGE('',*,*,#488,.T.);
#624=ORIENTED_EDGE('',*,*,#471,.F.);
#625=ORIENTED_EDGE('',*,*,#472,.F.);
#626=ORIENTED_EDGE('',*,*,#488,.F.);
#627=ORIENTED_EDGE('',*,*,#489,.F.);
#628=ORIENTED_EDGE('',*,*,#490,.F.);
#629=ORIENTED_EDGE('',*,*,#491,.T.);
#630=ORIENTED_EDGE('',*,*,#484,.F.);
#631=ORIENTED_EDGE('',*,*,#492,.F.);
#632=ORIENTED_EDGE('',*,*,#474,.T.);
#633=ORIENTED_EDGE('',*,*,#458,.T.);
#634=ORIENTED_EDGE('',*,*,#461,.T.);
#635=ORIENTED_EDGE('',*,*,#464,.T.);
#636=ORIENTED_EDGE('',*,*,#466,.T.);
#637=ORIENTED_EDGE('',*,*,#493,.F.);
#638=ORIENTED_EDGE('',*,*,#469,.F.);
#639=ORIENTED_EDGE('',*,*,#479,.F.);
#640=ORIENTED_EDGE('',*,*,#494,.F.);
#641=ORIENTED_EDGE('',*,*,#495,.F.);
#642=ORIENTED_EDGE('',*,*,#494,.T.);
#643=ORIENTED_EDGE('',*,*,#478,.T.);
#644=ORIENTED_EDGE('',*,*,#496,.F.);
#645=ORIENTED_EDGE('',*,*,#445,.F.);
#646=ORIENTED_EDGE('',*,*,#497,.T.);
#647=ORIENTED_EDGE('',*,*,#498,.F.);
#648=ORIENTED_EDGE('',*,*,#497,.F.);
#649=ORIENTED_EDGE('',*,*,#448,.F.);
#650=ORIENTED_EDGE('',*,*,#451,.F.);
#651=ORIENTED_EDGE('',*,*,#454,.F.);
#652=ORIENTED_EDGE('',*,*,#499,.F.);
#653=ORIENTED_EDGE('',*,*,#500,.F.);
#654=ORIENTED_EDGE('',*,*,#499,.T.);
#655=ORIENTED_EDGE('',*,*,#453,.T.);
#656=ORIENTED_EDGE('',*,*,#501,.F.);
#657=ORIENTED_EDGE('',*,*,#489,.T.);
#658=ORIENTED_EDGE('',*,*,#487,.T.);
#659=ORIENTED_EDGE('',*,*,#502,.F.);
#660=ORIENTED_EDGE('',*,*,#485,.F.);
#661=ORIENTED_EDGE('',*,*,#491,.F.);
#662=ORIENTED_EDGE('',*,*,#503,.F.);
#663=ORIENTED_EDGE('',*,*,#504,.F.);
#664=ORIENTED_EDGE('',*,*,#503,.T.);
#665=ORIENTED_EDGE('',*,*,#490,.T.);
#666=ORIENTED_EDGE('',*,*,#501,.T.);
#667=ORIENTED_EDGE('',*,*,#452,.T.);
#668=ORIENTED_EDGE('',*,*,#449,.T.);
#669=ORIENTED_EDGE('',*,*,#446,.T.);
#670=ORIENTED_EDGE('',*,*,#496,.T.);
#671=ORIENTED_EDGE('',*,*,#477,.T.);
#672=ORIENTED_EDGE('',*,*,#481,.T.);
#673=ORIENTED_EDGE('',*,*,#502,.T.);
#674=ORIENTED_EDGE('',*,*,#504,.T.);
#675=ORIENTED_EDGE('',*,*,#480,.T.);
#676=ORIENTED_EDGE('',*,*,#483,.T.);
#677=ORIENTED_EDGE('',*,*,#493,.T.);
#678=ORIENTED_EDGE('',*,*,#495,.T.);
#679=ORIENTED_EDGE('',*,*,#498,.T.);
#680=ORIENTED_EDGE('',*,*,#500,.T.);
#681=ORIENTED_EDGE('',*,*,#486,.T.);
#682=ORIENTED_EDGE('',*,*,#470,.T.);
#683=ORIENTED_EDGE('',*,*,#492,.T.);
#684=ORIENTED_EDGE('',*,*,#465,.T.);
#685=ORIENTED_EDGE('',*,*,#505,.F.);
#686=ORIENTED_EDGE('',*,*,#506,.F.);
#687=ORIENTED_EDGE('',*,*,#507,.F.);
#688=ORIENTED_EDGE('',*,*,#508,.F.);
#689=ORIENTED_EDGE('',*,*,#509,.F.);
#690=ORIENTED_EDGE('',*,*,#510,.F.);
#691=ORIENTED_EDGE('',*,*,#511,.F.);
#692=ORIENTED_EDGE('',*,*,#512,.F.);
#693=ORIENTED_EDGE('',*,*,#513,.F.);
#694=ORIENTED_EDGE('',*,*,#514,.F.);
#695=ORIENTED_EDGE('',*,*,#515,.F.);
#696=ORIENTED_EDGE('',*,*,#516,.F.);
#697=ORIENTED_EDGE('',*,*,#507,.T.);
#698=ORIENTED_EDGE('',*,*,#517,.F.);
#699=ORIENTED_EDGE('',*,*,#518,.F.);
#700=ORIENTED_EDGE('',*,*,#519,.F.);
#701=ORIENTED_EDGE('',*,*,#506,.T.);
#702=ORIENTED_EDGE('',*,*,#520,.T.);
#703=ORIENTED_EDGE('',*,*,#521,.T.);
#704=ORIENTED_EDGE('',*,*,#522,.F.);
#705=ORIENTED_EDGE('',*,*,#523,.F.);
#706=ORIENTED_EDGE('',*,*,#524,.F.);
#707=ORIENTED_EDGE('',*,*,#525,.F.);
#708=ORIENTED_EDGE('',*,*,#526,.F.);
#709=ORIENTED_EDGE('',*,*,#527,.T.);
#710=ORIENTED_EDGE('',*,*,#517,.T.);
#711=ORIENTED_EDGE('',*,*,#513,.T.);
#712=ORIENTED_EDGE('',*,*,#528,.F.);
#713=ORIENTED_EDGE('',*,*,#529,.F.);
#714=ORIENTED_EDGE('',*,*,#530,.F.);
#715=ORIENTED_EDGE('',*,*,#512,.T.);
#716=ORIENTED_EDGE('',*,*,#531,.F.);
#717=ORIENTED_EDGE('',*,*,#532,.T.);
#718=ORIENTED_EDGE('',*,*,#522,.T.);
#719=ORIENTED_EDGE('',*,*,#533,.T.);
#720=ORIENTED_EDGE('',*,*,#528,.T.);
#721=ORIENTED_EDGE('',*,*,#511,.T.);
#722=ORIENTED_EDGE('',*,*,#534,.T.);
#723=ORIENTED_EDGE('',*,*,#535,.T.);
#724=ORIENTED_EDGE('',*,*,#536,.T.);
#725=ORIENTED_EDGE('',*,*,#537,.T.);
#726=ORIENTED_EDGE('',*,*,#531,.T.);
#727=ORIENTED_EDGE('',*,*,#510,.T.);
#728=ORIENTED_EDGE('',*,*,#538,.T.);
#729=ORIENTED_EDGE('',*,*,#539,.T.);
#730=ORIENTED_EDGE('',*,*,#526,.T.);
#731=ORIENTED_EDGE('',*,*,#540,.F.);
#732=ORIENTED_EDGE('',*,*,#534,.F.);
#733=ORIENTED_EDGE('',*,*,#515,.T.);
#734=ORIENTED_EDGE('',*,*,#541,.F.);
#735=ORIENTED_EDGE('',*,*,#542,.F.);
#736=ORIENTED_EDGE('',*,*,#543,.F.);
#737=ORIENTED_EDGE('',*,*,#544,.F.);
#738=ORIENTED_EDGE('',*,*,#545,.F.);
#739=ORIENTED_EDGE('',*,*,#505,.T.);
#740=ORIENTED_EDGE('',*,*,#546,.F.);
#741=ORIENTED_EDGE('',*,*,#547,.F.);
#742=ORIENTED_EDGE('',*,*,#520,.F.);
#743=ORIENTED_EDGE('',*,*,#533,.F.);
#744=ORIENTED_EDGE('',*,*,#521,.F.);
#745=ORIENTED_EDGE('',*,*,#547,.T.);
#746=ORIENTED_EDGE('',*,*,#548,.F.);
#747=ORIENTED_EDGE('',*,*,#549,.F.);
#748=ORIENTED_EDGE('',*,*,#529,.T.);
#749=ORIENTED_EDGE('',*,*,#508,.T.);
#750=ORIENTED_EDGE('',*,*,#519,.T.);
#751=ORIENTED_EDGE('',*,*,#550,.T.);
#752=ORIENTED_EDGE('',*,*,#551,.T.);
#753=ORIENTED_EDGE('',*,*,#552,.T.);
#754=ORIENTED_EDGE('',*,*,#553,.T.);
#755=ORIENTED_EDGE('',*,*,#554,.T.);
#756=ORIENTED_EDGE('',*,*,#555,.T.);
#757=ORIENTED_EDGE('',*,*,#548,.T.);
#758=ORIENTED_EDGE('',*,*,#546,.T.);
#759=ORIENTED_EDGE('',*,*,#527,.F.);
#760=ORIENTED_EDGE('',*,*,#539,.F.);
#761=ORIENTED_EDGE('',*,*,#556,.F.);
#762=ORIENTED_EDGE('',*,*,#557,.F.);
#763=ORIENTED_EDGE('',*,*,#550,.F.);
#764=ORIENTED_EDGE('',*,*,#518,.T.);
#765=ORIENTED_EDGE('',*,*,#509,.T.);
#766=ORIENTED_EDGE('',*,*,#558,.F.);
#767=ORIENTED_EDGE('',*,*,#556,.T.);
#768=ORIENTED_EDGE('',*,*,#538,.F.);
#769=ORIENTED_EDGE('',*,*,#559,.T.);
#770=ORIENTED_EDGE('',*,*,#523,.T.);
#771=ORIENTED_EDGE('',*,*,#532,.F.);
#772=ORIENTED_EDGE('',*,*,#537,.F.);
#773=ORIENTED_EDGE('',*,*,#560,.T.);
#774=ORIENTED_EDGE('',*,*,#524,.T.);
#775=ORIENTED_EDGE('',*,*,#559,.F.);
#776=ORIENTED_EDGE('',*,*,#536,.F.);
#777=ORIENTED_EDGE('',*,*,#540,.T.);
#778=ORIENTED_EDGE('',*,*,#525,.T.);
#779=ORIENTED_EDGE('',*,*,#560,.F.);
#780=ORIENTED_EDGE('',*,*,#535,.F.);
#781=ORIENTED_EDGE('',*,*,#514,.T.);
#782=ORIENTED_EDGE('',*,*,#530,.T.);
#783=ORIENTED_EDGE('',*,*,#549,.T.);
#784=ORIENTED_EDGE('',*,*,#555,.F.);
#785=ORIENTED_EDGE('',*,*,#561,.F.);
#786=ORIENTED_EDGE('',*,*,#541,.T.);
#787=ORIENTED_EDGE('',*,*,#516,.T.);
#788=ORIENTED_EDGE('',*,*,#545,.T.);
#789=ORIENTED_EDGE('',*,*,#562,.T.);
#790=ORIENTED_EDGE('',*,*,#551,.F.);
#791=ORIENTED_EDGE('',*,*,#557,.T.);
#792=ORIENTED_EDGE('',*,*,#558,.T.);
#793=ORIENTED_EDGE('',*,*,#561,.T.);
#794=ORIENTED_EDGE('',*,*,#554,.F.);
#795=ORIENTED_EDGE('',*,*,#563,.F.);
#796=ORIENTED_EDGE('',*,*,#542,.T.);
#797=ORIENTED_EDGE('',*,*,#563,.T.);
#798=ORIENTED_EDGE('',*,*,#553,.F.);
#799=ORIENTED_EDGE('',*,*,#564,.F.);
#800=ORIENTED_EDGE('',*,*,#543,.T.);
#801=ORIENTED_EDGE('',*,*,#564,.T.);
#802=ORIENTED_EDGE('',*,*,#552,.F.);
#803=ORIENTED_EDGE('',*,*,#562,.F.);
#804=ORIENTED_EDGE('',*,*,#544,.T.);
#805=CYLINDRICAL_SURFACE('',#872,30.);
#806=CYLINDRICAL_SURFACE('',#876,30.);
#807=CYLINDRICAL_SURFACE('',#879,25.);
#808=CYLINDRICAL_SURFACE('',#883,25.);
#809=CYLINDRICAL_SURFACE('',#924,25.);
#810=CYLINDRICAL_SURFACE('',#926,25.);
#811=CYLINDRICAL_SURFACE('',#929,30.);
#812=CYLINDRICAL_SURFACE('',#931,30.);
#813=ADVANCED_FACE('',(#53),#805,.T.);
#814=ADVANCED_FACE('',(#54),#17,.T.);
#815=ADVANCED_FACE('',(#55),#806,.T.);
#816=ADVANCED_FACE('',(#56),#807,.F.);
#817=ADVANCED_FACE('',(#57),#18,.F.);
#818=ADVANCED_FACE('',(#58),#808,.F.);
#819=ADVANCED_FACE('',(#59),#19,.F.);
#820=ADVANCED_FACE('',(#60),#20,.F.);
#821=ADVANCED_FACE('',(#61),#21,.F.);
#822=ADVANCED_FACE('',(#62),#22,.F.);
#823=ADVANCED_FACE('',(#63),#23,.F.);
#824=ADVANCED_FACE('',(#64),#24,.F.);
#825=ADVANCED_FACE('',(#65),#25,.F.);
#826=ADVANCED_FACE('',(#66),#26,.T.);
#827=ADVANCED_FACE('',(#67),#27,.F.);
#828=ADVANCED_FACE('',(#68),#28,.T.);
#829=ADVANCED_FACE('',(#69),#29,.F.);
#830=ADVANCED_FACE('',(#70),#30,.T.);
#831=ADVANCED_FACE('',(#71),#31,.F.);
#832=ADVANCED_FACE('',(#72),#32,.T.);
#833=ADVANCED_FACE('',(#73),#33,.T.);
#834=ADVANCED_FACE('',(#74),#34,.T.);
#835=ADVANCED_FACE('',(#75),#35,.F.);
#836=ADVANCED_FACE('',(#76),#36,.F.);
#837=ADVANCED_FACE('',(#77),#37,.F.);
#838=ADVANCED_FACE('',(#78),#38,.F.);
#839=ADVANCED_FACE('',(#79),#39,.F.);
#840=ADVANCED_FACE('',(#80),#40,.F.);
#841=ADVANCED_FACE('',(#81),#41,.T.);
#842=ADVANCED_FACE('',(#82),#42,.F.);
#843=ADVANCED_FACE('',(#83),#43,.F.);
#844=ADVANCED_FACE('',(#84),#44,.F.);
#845=ADVANCED_FACE('',(#85),#45,.F.);
#846=ADVANCED_FACE('',(#86),#46,.T.);
#847=ADVANCED_FACE('',(#87),#47,.F.);
#848=ADVANCED_FACE('',(#88),#48,.F.);
#849=ADVANCED_FACE('',(#89),#809,.F.);
#850=ADVANCED_FACE('',(#90),#49,.F.);
#851=ADVANCED_FACE('',(#91),#810,.F.);
#852=ADVANCED_FACE('',(#92),#50,.T.);
#853=ADVANCED_FACE('',(#93),#51,.T.);
#854=ADVANCED_FACE('',(#94),#811,.T.);
#855=ADVANCED_FACE('',(#95),#52,.T.);
#856=ADVANCED_FACE('',(#96),#812,.T.);
#857=CLOSED_SHELL('',(#813,#814,#815,#816,#817,#818,#819,#820,#821,#822,
#823,#824,#825,#826,#827,#828,#829,#830,#831,#832,#833,#834));
#858=CLOSED_SHELL('',(#835,#836,#837,#838,#839,#840,#841,#842,#843,#844,
#845,#846,#847,#848,#849,#850,#851,#852,#853,#854,#855,#856));
#859=DERIVED_UNIT_ELEMENT(#861,1.);
#860=DERIVED_UNIT_ELEMENT(#1408,-3.);
#861=(
MASS_UNIT()
NAMED_UNIT(*)
SI_UNIT(.KILO.,.GRAM.)
);
#862=DERIVED_UNIT((#859,#860));
#863=MEASURE_REPRESENTATION_ITEM('density measure',
POSITIVE_RATIO_MEASURE(7850.),#862);
#864=PROPERTY_DEFINITION_REPRESENTATION(#869,#866);
#865=PROPERTY_DEFINITION_REPRESENTATION(#870,#867);
#866=REPRESENTATION('material name',(#868),#1405);
#867=REPRESENTATION('density',(#863),#1405);
#868=DESCRIPTIVE_REPRESENTATION_ITEM('Steel','Steel');
#869=PROPERTY_DEFINITION('material property','material name',#1415);
#870=PROPERTY_DEFINITION('material property','density of part',#1415);
#871=AXIS2_PLACEMENT_3D('',#1158,#932,#933);
#872=AXIS2_PLACEMENT_3D('',#1159,#934,#935);
#873=AXIS2_PLACEMENT_3D('',#1164,#937,#938);
#874=AXIS2_PLACEMENT_3D('',#1167,#940,#941);
#875=AXIS2_PLACEMENT_3D('',#1168,#942,#943);
#876=AXIS2_PLACEMENT_3D('',#1174,#947,#948);
#877=AXIS2_PLACEMENT_3D('',#1176,#949,#950);
#878=AXIS2_PLACEMENT_3D('',#1179,#952,#953);
#879=AXIS2_PLACEMENT_3D('',#1180,#954,#955);
#880=AXIS2_PLACEMENT_3D('',#1185,#957,#958);
#881=AXIS2_PLACEMENT_3D('',#1188,#960,#961);
#882=AXIS2_PLACEMENT_3D('',#1189,#962,#963);
#883=AXIS2_PLACEMENT_3D('',#1195,#967,#968);
#884=AXIS2_PLACEMENT_3D('',#1197,#969,#970);
#885=AXIS2_PLACEMENT_3D('',#1200,#972,#973);
#886=AXIS2_PLACEMENT_3D('',#1201,#974,#975);
#887=AXIS2_PLACEMENT_3D('',#1211,#981,#982);
#888=AXIS2_PLACEMENT_3D('',#1221,#988,#989);
#889=AXIS2_PLACEMENT_3D('',#1231,#995,#996);
#890=AXIS2_PLACEMENT_3D('',#1237,#1000,#1001);
#891=AXIS2_PLACEMENT_3D('',#1243,#1005,#1006);
#892=AXIS2_PLACEMENT_3D('',#1249,#1010,#1011);
#893=AXIS2_PLACEMENT_3D('',#1255,#1015,#1016);
#894=AXIS2_PLACEMENT_3D('',#1257,#1018,#1019);
#895=AXIS2_PLACEMENT_3D('',#1261,#1022,#1023);
#896=AXIS2_PLACEMENT_3D('',#1266,#1027,#1028);
#897=AXIS2_PLACEMENT_3D('',#1270,#1031,#1032);
#898=AXIS2_PLACEMENT_3D('',#1273,#1035,#1036);
#899=AXIS2_PLACEMENT_3D('',#1277,#1039,#1040);
#900=AXIS2_PLACEMENT_3D('',#1279,#1042,#1043);
#901=AXIS2_PLACEMENT_3D('',#1280,#1044,#1045);
#902=AXIS2_PLACEMENT_3D('',#1281,#1046,#1047);
#903=AXIS2_PLACEMENT_3D('',#1290,#1052,#1053);
#904=AXIS2_PLACEMENT_3D('',#1307,#1062,#1063);
#905=AXIS2_PLACEMENT_3D('',#1313,#1067,#1068);
#906=AXIS2_PLACEMENT_3D('',#1321,#1072,#1073);
#907=AXIS2_PLACEMENT_3D('',#1325,#1075,#1076);
#908=AXIS2_PLACEMENT_3D('',#1329,#1079,#1080);
#909=AXIS2_PLACEMENT_3D('',#1335,#1084,#1085);
#910=AXIS2_PLACEMENT_3D('',#1340,#1089,#1090);
#911=AXIS2_PLACEMENT_3D('',#1344,#1092,#1093);
#912=AXIS2_PLACEMENT_3D('',#1347,#1095,#1096);
#913=AXIS2_PLACEMENT_3D('',#1348,#1097,#1098);
#914=AXIS2_PLACEMENT_3D('',#1353,#1102,#1103);
#915=AXIS2_PLACEMENT_3D('',#1357,#1105,#1106);
#916=AXIS2_PLACEMENT_3D('',#1361,#1108,#1109);
#917=AXIS2_PLACEMENT_3D('',#1363,#1111,#1112);
#918=AXIS2_PLACEMENT_3D('',#1367,#1115,#1116);
#919=AXIS2_PLACEMENT_3D('',#1371,#1119,#1120);
#920=AXIS2_PLACEMENT_3D('',#1377,#1123,#1124);
#921=AXIS2_PLACEMENT_3D('',#1381,#1126,#1127);
#922=AXIS2_PLACEMENT_3D('',#1383,#1129,#1130);
#923=AXIS2_PLACEMENT_3D('',#1387,#1133,#1134);
#924=AXIS2_PLACEMENT_3D('',#1389,#1136,#1137);
#925=AXIS2_PLACEMENT_3D('',#1391,#1139,#1140);
#926=AXIS2_PLACEMENT_3D('',#1393,#1142,#1143);
#927=AXIS2_PLACEMENT_3D('',#1394,#1144,#1145);
#928=AXIS2_PLACEMENT_3D('',#1396,#1147,#1148);
#929=AXIS2_PLACEMENT_3D('',#1398,#1150,#1151);
#930=AXIS2_PLACEMENT_3D('',#1400,#1153,#1154);
#931=AXIS2_PLACEMENT_3D('',#1402,#1156,#1157);
#932=DIRECTION('axis',(0.,0.,1.));
#933=DIRECTION('refdir',(1.,0.,0.));
#934=DIRECTION('center_axis',(0.,0.,1.));
#935=DIRECTION('ref_axis',(-1.,2.96059473233375E-16,0.));
#936=DIRECTION('',(0.,0.,1.));
#937=DIRECTION('center_axis',(0.,0.,1.));
#938=DIRECTION('ref_axis',(-1.,2.96059473233375E-16,0.));
#939=DIRECTION('',(0.,0.,1.));
#940=DIRECTION('center_axis',(0.,0.,1.));
#941=DIRECTION('ref_axis',(-1.,2.96059473233375E-16,0.));
#942=DIRECTION('center_axis',(-1.,7.01193489236941E-17,0.));
#943=DIRECTION('ref_axis',(-7.01193489236941E-17,-1.,0.));
#944=DIRECTION('',(-7.01193489236941E-17,-1.,0.));
#945=DIRECTION('',(0.,0.,1.));
#946=DIRECTION('',(-7.01193489236941E-17,-1.,0.));
#947=DIRECTION('center_axis',(0.,0.,1.));
#948=DIRECTION('ref_axis',(-4.44089209850063E-16,1.,0.));
#949=DIRECTION('center_axis',(0.,0.,1.));
#950=DIRECTION('ref_axis',(-4.44089209850063E-16,1.,0.));
#951=DIRECTION('',(0.,0.,1.));
#952=DIRECTION('center_axis',(0.,0.,1.));
#953=DIRECTION('ref_axis',(-4.44089209850063E-16,1.,0.));
#954=DIRECTION('center_axis',(0.,0.,1.));
#955=DIRECTION('ref_axis',(-4.44089209850063E-16,1.,0.));
#956=DIRECTION('',(0.,0.,1.));
#957=DIRECTION('center_axis',(0.,0.,-1.));
#958=DIRECTION('ref_axis',(-4.44089209850063E-16,1.,0.));
#959=DIRECTION('',(0.,0.,1.));
#960=DIRECTION('center_axis',(0.,0.,-1.));
#961=DIRECTION('ref_axis',(-4.44089209850063E-16,1.,0.));
#962=DIRECTION('center_axis',(-1.,7.01193489236941E-17,0.));
#963=DIRECTION('ref_axis',(-7.01193489236941E-17,-1.,0.));
#964=DIRECTION('',(7.01193489236941E-17,1.,0.));
#965=DIRECTION('',(0.,0.,1.));
#966=DIRECTION('',(7.01193489236941E-17,1.,0.));
#967=DIRECTION('center_axis',(0.,0.,1.));
#968=DIRECTION('ref_axis',(-1.,2.96059473233375E-16,0.));
#969=DIRECTION('center_axis',(0.,0.,-1.));
#970=DIRECTION('ref_axis',(-1.,2.96059473233375E-16,0.));
#971=DIRECTION('',(0.,0.,1.));
#972=DIRECTION('center_axis',(0.,0.,-1.));
#973=DIRECTION('ref_axis',(-1.,2.96059473233375E-16,0.));
#974=DIRECTION('center_axis',(0.,-1.,0.));
#975=DIRECTION('ref_axis',(1.,0.,0.));
#976=DIRECTION('',(0.,0.,1.));
#977=DIRECTION('',(-1.,0.,0.));
#978=DIRECTION('',(-1.,0.,0.));
#979=DIRECTION('',(0.,0.,-1.));
#980=DIRECTION('',(1.,0.,0.));
#981=DIRECTION('center_axis',(0.,1.,0.));
#982=DIRECTION('ref_axis',(-1.,0.,0.));
#983=DIRECTION('',(0.,0.,-1.));
#984=DIRECTION('',(-1.,0.,0.));
#985=DIRECTION('',(0.,0.,1.));
#986=DIRECTION('',(1.,0.,0.));
#987=DIRECTION('',(1.,0.,0.));
#988=DIRECTION('center_axis',(-1.,0.,0.));
#989=DIRECTION('ref_axis',(0.,0.,1.));
#990=DIRECTION('',(0.,-1.,0.));
#991=DIRECTION('',(0.,0.,1.));
#992=DIRECTION('',(0.,1.,0.));
#993=DIRECTION('',(0.,0.,1.));
#994=DIRECTION('',(0.,1.,0.));
#995=DIRECTION('center_axis',(0.,1.,0.));
#996=DIRECTION('ref_axis',(0.,0.,1.));
#997=DIRECTION('',(0.,0.,-1.));
#998=DIRECTION('',(1.,0.,0.));
#999=DIRECTION('',(-1.,0.,0.));
#1000=DIRECTION('center_axis',(0.,0.,1.));
#1001=DIRECTION('ref_axis',(1.,0.,0.));
#1002=DIRECTION('',(0.,1.,0.));
#1003=DIRECTION('',(0.,-1.,0.));
#1004=DIRECTION('',(1.,0.,0.));
#1005=DIRECTION('center_axis',(0.,0.,-1.));
#1006=DIRECTION('ref_axis',(1.,0.,0.));
#1007=DIRECTION('',(0.,-1.,0.));
#1008=DIRECTION('',(1.,0.,0.));
#1009=DIRECTION('',(0.,-1.,0.));
#1010=DIRECTION('center_axis',(-1.,0.,0.));
#1011=DIRECTION('ref_axis',(0.,0.,-1.));
#1012=DIRECTION('',(0.,0.,-1.));
#1013=DIRECTION('',(0.,1.,0.));
#1014=DIRECTION('',(0.,0.,-1.));
#1015=DIRECTION('center_axis',(0.,0.,1.));
#1016=DIRECTION('ref_axis',(1.,0.,0.));
#1017=DIRECTION('',(0.,-1.,0.));
#1018=DIRECTION('center_axis',(0.,0.,-1.));
#1019=DIRECTION('ref_axis',(-1.,0.,0.));
#1020=DIRECTION('',(0.,-1.,0.));
#1021=DIRECTION('',(-1.,0.,0.));
#1022=DIRECTION('center_axis',(0.,-1.,0.));
#1023=DIRECTION('ref_axis',(1.,0.,0.));
#1024=DIRECTION('',(0.,0.,-1.));
#1025=DIRECTION('',(1.,0.,0.));
#1026=DIRECTION('',(1.,0.,0.));
#1027=DIRECTION('center_axis',(0.,0.,1.));
#1028=DIRECTION('ref_axis',(1.,0.,0.));
#1029=DIRECTION('',(0.,1.,0.));
#1030=DIRECTION('',(-1.,0.,0.));
#1031=DIRECTION('center_axis',(0.,1.,0.));
#1032=DIRECTION('ref_axis',(-1.,0.,0.));
#1033=DIRECTION('',(0.,0.,1.));
#1034=DIRECTION('',(-1.,0.,0.));
#1035=DIRECTION('center_axis',(0.,-1.,0.));
#1036=DIRECTION('ref_axis',(0.,0.,-1.));
#1037=DIRECTION('',(0.,0.,1.));
#1038=DIRECTION('',(-1.,0.,0.));
#1039=DIRECTION('center_axis',(0.,0.,1.));
#1040=DIRECTION('ref_axis',(1.,0.,0.));
#1041=DIRECTION('',(0.,-1.,0.));
#1042=DIRECTION('center_axis',(1.,0.,0.));
#1043=DIRECTION('ref_axis',(0.,0.,-1.));
#1044=DIRECTION('center_axis',(1.,0.,0.));
#1045=DIRECTION('ref_axis',(0.,0.,-1.));
#1046=DIRECTION('center_axis',(1.,0.,0.));
#1047=DIRECTION('ref_axis',(0.,0.,-1.));
#1048=DIRECTION('',(0.,0.,1.));
#1049=DIRECTION('',(0.,1.,0.));
#1050=DIRECTION('',(0.,0.,-1.));
#1051=DIRECTION('',(0.,-1.,0.));
#1052=DIRECTION('center_axis',(1.,0.,0.));
#1053=DIRECTION('ref_axis',(0.,0.,-1.));
#1054=DIRECTION('',(0.,-1.,0.));
#1055=DIRECTION('',(0.,0.,1.));
#1056=DIRECTION('',(0.,-1.,0.));
#1057=DIRECTION('',(0.,0.,-1.));
#1058=DIRECTION('',(0.,-1.,0.));
#1059=DIRECTION('',(0.,0.,1.));
#1060=DIRECTION('',(0.,1.,0.));
#1061=DIRECTION('',(0.,0.,-1.));
#1062=DIRECTION('center_axis',(0.,1.,0.));
#1063=DIRECTION('ref_axis',(0.,0.,1.));
#1064=DIRECTION('',(-1.,0.,0.));
#1065=DIRECTION('',(0.,0.,-1.));
#1066=DIRECTION('',(1.,0.,0.));
#1067=DIRECTION('center_axis',(0.,0.,1.));
#1068=DIRECTION('ref_axis',(1.,0.,0.));
#1069=DIRECTION('',(1.,0.,0.));
#1070=DIRECTION('',(0.,1.,0.));
#1071=DIRECTION('',(1.,0.,0.));
#1072=DIRECTION('center_axis',(0.,0.,-1.));
#1073=DIRECTION('ref_axis',(1.,0.,0.));
#1074=DIRECTION('',(0.,-1.,0.));
#1075=DIRECTION('center_axis',(0.,0.,-1.));
#1076=DIRECTION('ref_axis',(0.,-1.,0.));
#1077=DIRECTION('',(-1.,0.,0.));
#1078=DIRECTION('',(0.,1.,0.));
#1079=DIRECTION('center_axis',(0.,0.,-1.));
#1080=DIRECTION('ref_axis',(1.,0.,0.));
#1081=DIRECTION('',(-1.,0.,0.));
#1082=DIRECTION('',(0.,-1.,0.));
#1083=DIRECTION('',(1.,0.,0.));
#1084=DIRECTION('center_axis',(0.,1.,0.));
#1085=DIRECTION('ref_axis',(-1.,0.,0.));
#1086=DIRECTION('',(1.,0.,0.));
#1087=DIRECTION('',(0.,0.,1.));
#1088=DIRECTION('',(0.,0.,-1.));
#1089=DIRECTION('center_axis',(0.,0.,1.));
#1090=DIRECTION('ref_axis',(1.,0.,0.));
#1091=DIRECTION('',(-1.,0.,0.));
#1092=DIRECTION('center_axis',(0.,0.,-1.));
#1093=DIRECTION('ref_axis',(0.,-1.,0.));
#1094=DIRECTION('',(0.,-1.,0.));
#1095=DIRECTION('center_axis',(0.,0.,-1.));
#1096=DIRECTION('ref_axis',(1.,0.,0.));
#1097=DIRECTION('center_axis',(0.,-1.,0.));
#1098=DIRECTION('ref_axis',(1.,0.,0.));
#1099=DIRECTION('',(1.,0.,0.));
#1100=DIRECTION('',(0.,0.,1.));
#1101=DIRECTION('',(0.,0.,1.));
#1102=DIRECTION('center_axis',(0.,0.,1.));
#1103=DIRECTION('ref_axis',(1.,0.,0.));
#1104=DIRECTION('',(-1.,0.,0.));
#1105=DIRECTION('center_axis',(0.,0.,1.));
#1106=DIRECTION('ref_axis',(1.,0.,0.));
#1107=DIRECTION('',(0.,1.,0.));
#1108=DIRECTION('center_axis',(0.,0.,1.));
#1109=DIRECTION('ref_axis',(0.,-1.,0.));
#1110=DIRECTION('',(1.,0.,0.));
#1111=DIRECTION('center_axis',(0.,-1.,0.));
#1112=DIRECTION('ref_axis',(0.,0.,-1.));
#1113=DIRECTION('',(-1.,0.,0.));
#1114=DIRECTION('',(0.,0.,1.));
#1115=DIRECTION('center_axis',(1.,0.,0.));
#1116=DIRECTION('ref_axis',(0.,0.,1.));
#1117=DIRECTION('',(0.,-1.,0.));
#1118=DIRECTION('',(0.,0.,1.));
#1119=DIRECTION('center_axis',(0.,0.,1.));
#1120=DIRECTION('ref_axis',(1.,0.,0.));
#1121=DIRECTION('',(0.,-1.,0.));
#1122=DIRECTION('',(1.,0.,0.));
#1123=DIRECTION('center_axis',(0.,0.,1.));
#1124=DIRECTION('ref_axis',(0.,-1.,0.));
#1125=DIRECTION('',(0.,1.,0.));
#1126=DIRECTION('center_axis',(0.,0.,1.));
#1127=DIRECTION('ref_axis',(1.,0.,0.));
#1128=DIRECTION('',(-1.,0.,0.));
#1129=DIRECTION('center_axis',(1.,0.,0.));
#1130=DIRECTION('ref_axis',(0.,0.,-1.));
#1131=DIRECTION('',(0.,1.,0.));
#1132=DIRECTION('',(0.,0.,-1.));
#1133=DIRECTION('center_axis',(0.,0.,-1.));
#1134=DIRECTION('ref_axis',(-1.,0.,0.));
#1135=DIRECTION('',(-1.,0.,0.));
#1136=DIRECTION('center_axis',(0.,0.,1.));
#1137=DIRECTION('ref_axis',(1.,0.,0.));
#1138=DIRECTION('',(0.,0.,1.));
#1139=DIRECTION('center_axis',(1.,0.,0.));
#1140=DIRECTION('ref_axis',(0.,1.,0.));
#1141=DIRECTION('',(0.,0.,1.));
#1142=DIRECTION('center_axis',(0.,0.,1.));
#1143=DIRECTION('ref_axis',(0.,-1.,0.));
#1144=DIRECTION('center_axis',(0.,1.,0.));
#1145=DIRECTION('ref_axis',(-1.,0.,0.));
#1146=DIRECTION('',(0.,0.,1.));
#1147=DIRECTION('center_axis',(0.,-1.,0.));
#1148=DIRECTION('ref_axis',(1.,0.,0.));
#1149=DIRECTION('',(0.,0.,1.));
#1150=DIRECTION('center_axis',(0.,0.,1.));
#1151=DIRECTION('ref_axis',(1.,0.,0.));
#1152=DIRECTION('',(0.,0.,1.));
#1153=DIRECTION('center_axis',(1.,0.,0.));
#1154=DIRECTION('ref_axis',(0.,1.,0.));
#1155=DIRECTION('',(0.,0.,1.));
#1156=DIRECTION('center_axis',(0.,0.,1.));
#1157=DIRECTION('ref_axis',(0.,-1.,0.));
#1158=CARTESIAN_POINT('',(0.,0.,0.));
#1159=CARTESIAN_POINT('Origin',(30.,30.,0.));
#1160=CARTESIAN_POINT('',(30.,4.44089209850063E-15,0.));
#1161=CARTESIAN_POINT('',(30.,4.44089209850063E-15,75.));
#1162=CARTESIAN_POINT('',(30.,4.44089209850063E-15,0.));
#1163=CARTESIAN_POINT('',(0.,30.,75.));
#1164=CARTESIAN_POINT('Origin',(30.,30.,75.));
#1165=CARTESIAN_POINT('',(4.44089209850063E-15,30.,0.));
#1166=CARTESIAN_POINT('',(4.44089209850063E-15,30.,0.));
#1167=CARTESIAN_POINT('Origin',(30.,30.,0.));
#1168=CARTESIAN_POINT('Origin',(1.77635683940025E-14,220.,0.));
#1169=CARTESIAN_POINT('',(0.,220.,75.));
#1170=CARTESIAN_POINT('',(1.77635683940025E-14,220.,75.));
#1171=CARTESIAN_POINT('',(1.33226762955019E-14,220.,0.));
#1172=CARTESIAN_POINT('',(1.33226762955019E-14,220.,0.));
#1173=CARTESIAN_POINT('',(1.77635683940025E-14,220.,0.));
#1174=CARTESIAN_POINT('Origin',(30.,220.,0.));
#1175=CARTESIAN_POINT('',(30.,250.,75.));
#1176=CARTESIAN_POINT('Origin',(30.,220.,75.));
#1177=CARTESIAN_POINT('',(30.,250.,0.));
#1178=CARTESIAN_POINT('',(30.,250.,0.));
#1179=CARTESIAN_POINT('Origin',(30.,220.,0.));
#1180=CARTESIAN_POINT('Origin',(30.,220.,0.));
#1181=CARTESIAN_POINT('',(30.,245.,5.));
#1182=CARTESIAN_POINT('',(30.,245.,70.));
#1183=CARTESIAN_POINT('',(30.,245.,0.));
#1184=CARTESIAN_POINT('',(5.00000000000002,220.,70.));
#1185=CARTESIAN_POINT('Origin',(30.,220.,70.));
#1186=CARTESIAN_POINT('',(5.00000000000002,220.,5.));
#1187=CARTESIAN_POINT('',(5.00000000000001,220.,0.));
#1188=CARTESIAN_POINT('Origin',(30.,220.,5.));
#1189=CARTESIAN_POINT('Origin',(5.00000000000002,220.,0.));
#1190=CARTESIAN_POINT('',(5.,30.,70.));
#1191=CARTESIAN_POINT('',(5.00000000000002,172.5,70.));
#1192=CARTESIAN_POINT('',(5.,30.,5.));
#1193=CARTESIAN_POINT('',(5.,30.,0.));
#1194=CARTESIAN_POINT('',(5.00000000000002,172.5,5.));
#1195=CARTESIAN_POINT('Origin',(30.,30.,0.));
#1196=CARTESIAN_POINT('',(30.,5.,70.));
#1197=CARTESIAN_POINT('Origin',(30.,30.,70.));
#1198=CARTESIAN_POINT('',(30.,5.,5.));
#1199=CARTESIAN_POINT('',(30.,5.,0.));
#1200=CARTESIAN_POINT('Origin',(30.,30.,5.));
#1201=CARTESIAN_POINT('Origin',(30.,5.,0.));
#1202=CARTESIAN_POINT('',(110.,5.,5.));
#1203=CARTESIAN_POINT('',(110.,5.,45.));
#1204=CARTESIAN_POINT('',(110.,5.,18.75));
#1205=CARTESIAN_POINT('',(70.,5.,5.));
#1206=CARTESIAN_POINT('',(70.,5.,70.));
#1207=CARTESIAN_POINT('',(70.,5.,70.));
#1208=CARTESIAN_POINT('',(70.,5.,45.));
#1209=CARTESIAN_POINT('',(70.,5.,22.5));
#1210=CARTESIAN_POINT('',(90.,5.,45.));
#1211=CARTESIAN_POINT('Origin',(190.,245.,0.));
#1212=CARTESIAN_POINT('',(110.,245.,45.));
#1213=CARTESIAN_POINT('',(110.,245.,5.));
#1214=CARTESIAN_POINT('',(110.,245.,18.75));
#1215=CARTESIAN_POINT('',(70.,245.,45.));
#1216=CARTESIAN_POINT('',(130.,245.,45.));
#1217=CARTESIAN_POINT('',(70.,245.,70.));
#1218=CARTESIAN_POINT('',(70.,245.,37.5));
#1219=CARTESIAN_POINT('',(150.,245.,70.));
#1220=CARTESIAN_POINT('',(150.,245.,5.));
#1221=CARTESIAN_POINT('Origin',(70.,4.44089209850063E-15,45.));
#1222=CARTESIAN_POINT('',(70.,15.,70.));
#1223=CARTESIAN_POINT('',(70.,62.5,70.));
#1224=CARTESIAN_POINT('',(70.,15.,75.));
#1225=CARTESIAN_POINT('',(70.,15.,45.));
#1226=CARTESIAN_POINT('',(70.,4.44089209850063E-15,75.));
#1227=CARTESIAN_POINT('',(70.,62.5,75.));
#1228=CARTESIAN_POINT('',(70.,4.44089209850063E-15,45.));
#1229=CARTESIAN_POINT('',(70.,4.44089209850063E-15,22.5));
#1230=CARTESIAN_POINT('',(70.,4.44089209850063E-15,45.));
#1231=CARTESIAN_POINT('Origin',(110.,15.,60.));
#1232=CARTESIAN_POINT('',(110.,15.,75.));
#1233=CARTESIAN_POINT('',(110.,15.,70.));
#1234=CARTESIAN_POINT('',(110.,15.,48.75));
#1235=CARTESIAN_POINT('',(110.,15.,75.));
#1236=CARTESIAN_POINT('',(110.,15.,70.));
#1237=CARTESIAN_POINT('Origin',(110.,125.,70.));
#1238=CARTESIAN_POINT('',(110.,235.,70.));
#1239=CARTESIAN_POINT('',(110.,125.,70.));
#1240=CARTESIAN_POINT('',(70.,235.,70.));
#1241=CARTESIAN_POINT('',(70.,187.5,70.));
#1242=CARTESIAN_POINT('',(110.,235.,70.));
#1243=CARTESIAN_POINT('Origin',(70.,250.,45.));
#1244=CARTESIAN_POINT('',(110.,250.,45.));
#1245=CARTESIAN_POINT('',(110.,187.5,45.));
#1246=CARTESIAN_POINT('',(70.,250.,45.));
#1247=CARTESIAN_POINT('',(130.,250.,45.));
#1248=CARTESIAN_POINT('',(70.,250.,45.));
#1249=CARTESIAN_POINT('Origin',(70.,250.,75.));
#1250=CARTESIAN_POINT('',(70.,250.,75.));
#1251=CARTESIAN_POINT('',(70.,250.,37.5));
#1252=CARTESIAN_POINT('',(70.,235.,75.));
#1253=CARTESIAN_POINT('',(70.,187.5,75.));
#1254=CARTESIAN_POINT('',(70.,235.,75.));
#1255=CARTESIAN_POINT('Origin',(110.,125.,5.));
#1256=CARTESIAN_POINT('',(110.,125.,5.));
#1257=CARTESIAN_POINT('Origin',(150.,4.44089209850063E-15,45.));
#1258=CARTESIAN_POINT('',(110.,4.44089209850063E-15,45.));
#1259=CARTESIAN_POINT('',(110.,62.5,45.));
#1260=CARTESIAN_POINT('',(90.,4.44089209850063E-15,45.));
#1261=CARTESIAN_POINT('Origin',(30.,4.44089209850063E-15,0.));
#1262=CARTESIAN_POINT('',(110.,4.44089209850063E-15,0.));
#1263=CARTESIAN_POINT('',(110.,0.,18.75));
#1264=CARTESIAN_POINT('',(30.,4.44089209850063E-15,75.));
#1265=CARTESIAN_POINT('',(30.,4.44089209850063E-15,0.));
#1266=CARTESIAN_POINT('Origin',(110.,125.,0.));
#1267=CARTESIAN_POINT('',(110.,250.,0.));
#1268=CARTESIAN_POINT('',(110.,125.,0.));
#1269=CARTESIAN_POINT('',(190.,250.,0.));
#1270=CARTESIAN_POINT('Origin',(190.,250.,0.));
#1271=CARTESIAN_POINT('',(110.,250.,18.75));
#1272=CARTESIAN_POINT('',(190.,250.,75.));
#1273=CARTESIAN_POINT('Origin',(110.,235.,60.));
#1274=CARTESIAN_POINT('',(110.,235.,75.));
#1275=CARTESIAN_POINT('',(110.,235.,48.75));
#1276=CARTESIAN_POINT('',(110.,235.,75.));
#1277=CARTESIAN_POINT('Origin',(110.,125.,75.));
#1278=CARTESIAN_POINT('',(110.,125.,75.));
#1279=CARTESIAN_POINT('Origin',(110.,125.,37.5));
#1280=CARTESIAN_POINT('Origin',(110.,125.,37.5));
#1281=CARTESIAN_POINT('Origin',(110.,125.,37.5));
#1282=CARTESIAN_POINT('',(110.,235.,70.));
#1283=CARTESIAN_POINT('',(110.,235.,75.));
#1284=CARTESIAN_POINT('',(110.,235.,48.75));
#1285=CARTESIAN_POINT('',(110.,15.,70.));
#1286=CARTESIAN_POINT('',(110.,125.,70.));
#1287=CARTESIAN_POINT('',(110.,15.,75.));
#1288=CARTESIAN_POINT('',(110.,15.,48.75));
#1289=CARTESIAN_POINT('',(110.,125.,75.));
#1290=CARTESIAN_POINT('Origin',(110.,125.,37.5));
#1291=CARTESIAN_POINT('',(110.,5.,45.));
#1292=CARTESIAN_POINT('',(110.,4.44089209850063E-15,45.));
#1293=CARTESIAN_POINT('',(110.,62.5,45.));
#1294=CARTESIAN_POINT('',(110.,5.,5.));
#1295=CARTESIAN_POINT('',(110.,5.,18.75));
#1296=CARTESIAN_POINT('',(110.,245.,5.));
#1297=CARTESIAN_POINT('',(110.,125.,5.));
#1298=CARTESIAN_POINT('',(110.,245.,45.));
#1299=CARTESIAN_POINT('',(110.,245.,18.75));
#1300=CARTESIAN_POINT('',(110.,250.,45.));
#1301=CARTESIAN_POINT('',(110.,187.5,45.));
#1302=CARTESIAN_POINT('',(110.,250.,0.));
#1303=CARTESIAN_POINT('',(110.,250.,18.75));
#1304=CARTESIAN_POINT('',(110.,4.44089209850063E-15,0.));
#1305=CARTESIAN_POINT('',(110.,125.,0.));
#1306=CARTESIAN_POINT('',(110.,0.,18.75));
#1307=CARTESIAN_POINT('Origin',(110.,15.,60.));
#1308=CARTESIAN_POINT('',(150.,15.,70.));
#1309=CARTESIAN_POINT('',(110.,15.,70.));
#1310=CARTESIAN_POINT('',(150.,15.,75.));
#1311=CARTESIAN_POINT('',(150.,15.,75.));
#1312=CARTESIAN_POINT('',(110.,15.,75.));
#1313=CARTESIAN_POINT('Origin',(110.,125.,70.));
#1314=CARTESIAN_POINT('',(150.,235.,70.));
#1315=CARTESIAN_POINT('',(110.,235.,70.));
#1316=CARTESIAN_POINT('',(150.,245.,70.));
#1317=CARTESIAN_POINT('',(150.,187.5,70.));
#1318=CARTESIAN_POINT('',(190.,245.,70.));
#1319=CARTESIAN_POINT('',(150.,245.,70.));
#1320=CARTESIAN_POINT('',(215.,220.,70.));
#1321=CARTESIAN_POINT('Origin',(190.,220.,70.));
#1322=CARTESIAN_POINT('',(215.,30.,70.));
#1323=CARTESIAN_POINT('',(215.,77.5,70.));
#1324=CARTESIAN_POINT('',(190.,5.,70.));
#1325=CARTESIAN_POINT('Origin',(190.,30.,70.));
#1326=CARTESIAN_POINT('',(150.,5.,70.));
#1327=CARTESIAN_POINT('',(70.,5.,70.));
#1328=CARTESIAN_POINT('',(150.,62.5,70.));
#1329=CARTESIAN_POINT('Origin',(70.,250.,45.));
#1330=CARTESIAN_POINT('',(150.,245.,45.));
#1331=CARTESIAN_POINT('',(130.,245.,45.));
#1332=CARTESIAN_POINT('',(150.,250.,45.));
#1333=CARTESIAN_POINT('',(150.,250.,45.));
#1334=CARTESIAN_POINT('',(130.,250.,45.));
#1335=CARTESIAN_POINT('Origin',(190.,245.,0.));
#1336=CARTESIAN_POINT('',(190.,245.,5.));
#1337=CARTESIAN_POINT('',(150.,245.,5.));
#1338=CARTESIAN_POINT('',(190.,245.,0.));
#1339=CARTESIAN_POINT('',(150.,245.,22.5));
#1340=CARTESIAN_POINT('Origin',(110.,125.,5.));
#1341=CARTESIAN_POINT('',(190.,5.,5.));
#1342=CARTESIAN_POINT('',(70.,5.,5.));
#1343=CARTESIAN_POINT('',(215.,30.,5.));
#1344=CARTESIAN_POINT('Origin',(190.,30.,5.));
#1345=CARTESIAN_POINT('',(215.,220.,5.));
#1346=CARTESIAN_POINT('',(215.,77.5,5.));
#1347=CARTESIAN_POINT('Origin',(190.,220.,5.));
#1348=CARTESIAN_POINT('Origin',(30.,5.,0.));
#1349=CARTESIAN_POINT('',(150.,5.,45.));
#1350=CARTESIAN_POINT('',(90.,5.,45.));
#1351=CARTESIAN_POINT('',(150.,5.,37.5));
#1352=CARTESIAN_POINT('',(190.,5.,0.));
#1353=CARTESIAN_POINT('Origin',(110.,125.,0.));
#1354=CARTESIAN_POINT('',(190.,250.,0.));
#1355=CARTESIAN_POINT('',(190.,250.,0.));
#1356=CARTESIAN_POINT('',(220.,220.,0.));
#1357=CARTESIAN_POINT('Origin',(190.,220.,0.));
#1358=CARTESIAN_POINT('',(220.,30.,0.));
#1359=CARTESIAN_POINT('',(220.,30.,0.));
#1360=CARTESIAN_POINT('',(190.,4.44089209850063E-15,0.));
#1361=CARTESIAN_POINT('Origin',(190.,30.,0.));
#1362=CARTESIAN_POINT('',(30.,4.44089209850063E-15,0.));
#1363=CARTESIAN_POINT('Origin',(110.,235.,60.));
#1364=CARTESIAN_POINT('',(150.,235.,75.));
#1365=CARTESIAN_POINT('',(110.,235.,75.));
#1366=CARTESIAN_POINT('',(150.,235.,45.));
#1367=CARTESIAN_POINT('Origin',(150.,250.,45.));
#1368=CARTESIAN_POINT('',(150.,250.,75.));
#1369=CARTESIAN_POINT('',(150.,187.5,75.));
#1370=CARTESIAN_POINT('',(150.,250.,22.5));
#1371=CARTESIAN_POINT('Origin',(110.,125.,75.));
#1372=CARTESIAN_POINT('',(150.,4.44089209850063E-15,75.));
#1373=CARTESIAN_POINT('',(150.,62.5,75.));
#1374=CARTESIAN_POINT('',(190.,4.44089209850063E-15,75.));
#1375=CARTESIAN_POINT('',(30.,4.44089209850063E-15,75.));
#1376=CARTESIAN_POINT('',(220.,30.,75.));
#1377=CARTESIAN_POINT('Origin',(190.,30.,75.));
#1378=CARTESIAN_POINT('',(220.,220.,75.));
#1379=CARTESIAN_POINT('',(220.,30.,75.));
#1380=CARTESIAN_POINT('',(190.,250.,75.));
#1381=CARTESIAN_POINT('Origin',(190.,220.,75.));
#1382=CARTESIAN_POINT('',(190.,250.,75.));
#1383=CARTESIAN_POINT('Origin',(150.,4.44089209850063E-15,75.));
#1384=CARTESIAN_POINT('',(150.,4.44089209850063E-15,45.));
#1385=CARTESIAN_POINT('',(150.,4.44089209850063E-15,45.));
#1386=CARTESIAN_POINT('',(150.,4.44089209850063E-15,37.5));
#1387=CARTESIAN_POINT('Origin',(150.,4.44089209850063E-15,45.));
#1388=CARTESIAN_POINT('',(90.,4.44089209850063E-15,45.));
#1389=CARTESIAN_POINT('Origin',(190.,220.,0.));
#1390=CARTESIAN_POINT('',(215.,220.,0.));
#1391=CARTESIAN_POINT('Origin',(215.,30.,0.));
#1392=CARTESIAN_POINT('',(215.,30.,0.));
#1393=CARTESIAN_POINT('Origin',(190.,30.,0.));
#1394=CARTESIAN_POINT('Origin',(190.,250.,0.));
#1395=CARTESIAN_POINT('',(190.,250.,0.));
#1396=CARTESIAN_POINT('Origin',(30.,4.44089209850063E-15,0.));
#1397=CARTESIAN_POINT('',(190.,4.44089209850063E-15,0.));
#1398=CARTESIAN_POINT('Origin',(190.,220.,0.));
#1399=CARTESIAN_POINT('',(220.,220.,0.));
#1400=CARTESIAN_POINT('Origin',(220.,30.,0.));
#1401=CARTESIAN_POINT('',(220.,30.,0.));
#1402=CARTESIAN_POINT('Origin',(190.,30.,0.));
#1403=UNCERTAINTY_MEASURE_WITH_UNIT(LENGTH_MEASURE(0.01),#1407,
'DISTANCE_ACCURACY_VALUE',
'Maximum model space distance between geometric entities at asserted c
onnectivities');
#1404=UNCERTAINTY_MEASURE_WITH_UNIT(LENGTH_MEASURE(0.01),#1407,
'DISTANCE_ACCURACY_VALUE',
'Maximum model space distance between geometric entities at asserted c
onnectivities');
#1405=(
GEOMETRIC_REPRESENTATION_CONTEXT(3)
GLOBAL_UNCERTAINTY_ASSIGNED_CONTEXT((#1403))
GLOBAL_UNIT_ASSIGNED_CONTEXT((#1407,#1409,#1410))
REPRESENTATION_CONTEXT('','3D')
);
#1406=(
GEOMETRIC_REPRESENTATION_CONTEXT(3)
GLOBAL_UNCERTAINTY_ASSIGNED_CONTEXT((#1404))
GLOBAL_UNIT_ASSIGNED_CONTEXT((#1407,#1409,#1410))
REPRESENTATION_CONTEXT('','3D')
);
#1407=(
LENGTH_UNIT()
NAMED_UNIT(*)
SI_UNIT(.MILLI.,.METRE.)
);
#1408=(
LENGTH_UNIT()
NAMED_UNIT(*)
SI_UNIT($,.METRE.)
);
#1409=(
NAMED_UNIT(*)
PLANE_ANGLE_UNIT()
SI_UNIT($,.RADIAN.)
);
#1410=(
NAMED_UNIT(*)
SI_UNIT($,.STERADIAN.)
SOLID_ANGLE_UNIT()
);
#1411=SHAPE_DEFINITION_REPRESENTATION(#1412,#1413);
#1412=PRODUCT_DEFINITION_SHAPE('',$,#1415);
#1413=SHAPE_REPRESENTATION('',(#871),#1405);
#1414=PRODUCT_DEFINITION_CONTEXT('part definition',#1419,'design');
#1415=PRODUCT_DEFINITION('2026-06-27-23-32-10-352','seat_bottom',#1416,
#1414);
#1416=PRODUCT_DEFINITION_FORMATION('',$,#1421);
#1417=PRODUCT_RELATED_PRODUCT_CATEGORY('seat_bottom','seat_bottom',(#1421));
#1418=APPLICATION_PROTOCOL_DEFINITION('international standard',
'automotive_design',2009,#1419);
#1419=APPLICATION_CONTEXT(
'Core Data for Automotive Mechanical Design Process');
#1420=PRODUCT_CONTEXT('part definition',#1419,'mechanical');
#1421=PRODUCT('2026-06-27-23-32-10-352','seat_bottom',$,(#1420));
#1422=PRESENTATION_STYLE_ASSIGNMENT((#1423));
#1423=SURFACE_STYLE_USAGE(.BOTH.,#1424);
#1424=SURFACE_SIDE_STYLE('',(#1425));
#1425=SURFACE_STYLE_FILL_AREA(#1426);
#1426=FILL_AREA_STYLE('Steel - Satin',(#1427));
#1427=FILL_AREA_STYLE_COLOUR('Steel - Satin',#1428);
#1428=COLOUR_RGB('Steel - Satin',0.627450980392157,0.627450980392157,0.627450980392157);
ENDSEC;
END-ISO-10303-21;
