ISO-10303-21;
HEADER;
/* Generated by software containing ST-Developer
 * from STEP Tools, Inc. (www.steptools.com) 
 */

FILE_DESCRIPTION(
/* description */ (''),
/* implementation_level */ '2;1');

FILE_NAME(
/* name */ 'ultrasonic_sensor_holder_frame.step',
/* time_stamp */ '2026-08-14T19:18:08+09:00',
/* author */ (''),
/* organization */ (''),
/* preprocessor_version */ 'ST-DEVELOPER v20.1',
/* originating_system */ 'Autodesk Translation Framework v15.8.0.0',
/* authorisation */ '');

FILE_SCHEMA (('AUTOMOTIVE_DESIGN { 1 0 10303 214 3 1 1 }'));
ENDSEC;

DATA;
#10=MECHANICAL_DESIGN_GEOMETRIC_PRESENTATION_REPRESENTATION('',(#13),#487);
#11=SHAPE_REPRESENTATION_RELATIONSHIP('SRR','None',#494,#12);
#12=ADVANCED_BREP_SHAPE_REPRESENTATION('',(#14),#486);
#13=STYLED_ITEM('',(#503),#14);
#14=MANIFOLD_SOLID_BREP('Body1',#299);
#15=FACE_BOUND('',#47,.T.);
#16=FACE_OUTER_BOUND('',#33,.T.);
#17=FACE_OUTER_BOUND('',#34,.T.);
#18=FACE_OUTER_BOUND('',#35,.T.);
#19=FACE_OUTER_BOUND('',#36,.T.);
#20=FACE_OUTER_BOUND('',#37,.T.);
#21=FACE_OUTER_BOUND('',#38,.T.);
#22=FACE_OUTER_BOUND('',#39,.T.);
#23=FACE_OUTER_BOUND('',#40,.T.);
#24=FACE_OUTER_BOUND('',#41,.T.);
#25=FACE_OUTER_BOUND('',#42,.T.);
#26=FACE_OUTER_BOUND('',#43,.T.);
#27=FACE_OUTER_BOUND('',#44,.T.);
#28=FACE_OUTER_BOUND('',#45,.T.);
#29=FACE_OUTER_BOUND('',#46,.T.);
#30=FACE_OUTER_BOUND('',#48,.T.);
#31=FACE_OUTER_BOUND('',#49,.T.);
#32=FACE_OUTER_BOUND('',#50,.T.);
#33=EDGE_LOOP('',(#189,#190,#191,#192));
#34=EDGE_LOOP('',(#193,#194,#195,#196,#197,#198));
#35=EDGE_LOOP('',(#199,#200,#201,#202));
#36=EDGE_LOOP('',(#203,#204,#205,#206));
#37=EDGE_LOOP('',(#207,#208,#209,#210,#211,#212));
#38=EDGE_LOOP('',(#213,#214,#215,#216));
#39=EDGE_LOOP('',(#217,#218,#219,#220));
#40=EDGE_LOOP('',(#221,#222,#223,#224));
#41=EDGE_LOOP('',(#225,#226,#227,#228));
#42=EDGE_LOOP('',(#229,#230,#231,#232));
#43=EDGE_LOOP('',(#233,#234,#235,#236));
#44=EDGE_LOOP('',(#237,#238,#239,#240));
#45=EDGE_LOOP('',(#241,#242,#243,#244));
#46=EDGE_LOOP('',(#245,#246,#247,#248));
#47=EDGE_LOOP('',(#249,#250,#251,#252));
#48=EDGE_LOOP('',(#253,#254,#255,#256));
#49=EDGE_LOOP('',(#257,#258,#259,#260));
#50=EDGE_LOOP('',(#261,#262,#263,#264));
#51=LINE('',#408,#89);
#52=LINE('',#410,#90);
#53=LINE('',#412,#91);
#54=LINE('',#413,#92);
#55=LINE('',#416,#93);
#56=LINE('',#418,#94);
#57=LINE('',#420,#95);
#58=LINE('',#422,#96);
#59=LINE('',#423,#97);
#60=LINE('',#426,#98);
#61=LINE('',#427,#99);
#62=LINE('',#430,#100);
#63=LINE('',#431,#101);
#64=LINE('',#434,#102);
#65=LINE('',#436,#103);
#66=LINE('',#437,#104);
#67=LINE('',#439,#105);
#68=LINE('',#440,#106);
#69=LINE('',#445,#107);
#70=LINE('',#447,#108);
#71=LINE('',#449,#109);
#72=LINE('',#450,#110);
#73=LINE('',#453,#111);
#74=LINE('',#455,#112);
#75=LINE('',#456,#113);
#76=LINE('',#459,#114);
#77=LINE('',#461,#115);
#78=LINE('',#462,#116);
#79=LINE('',#464,#117);
#80=LINE('',#465,#118);
#81=LINE('',#468,#119);
#82=LINE('',#470,#120);
#83=LINE('',#471,#121);
#84=LINE('',#474,#122);
#85=LINE('',#475,#123);
#86=LINE('',#479,#124);
#87=LINE('',#480,#125);
#88=LINE('',#482,#126);
#89=VECTOR('',#334,10.);
#90=VECTOR('',#335,10.);
#91=VECTOR('',#336,10.);
#92=VECTOR('',#337,10.);
#93=VECTOR('',#340,10.);
#94=VECTOR('',#341,10.);
#95=VECTOR('',#342,10.);
#96=VECTOR('',#343,10.);
#97=VECTOR('',#344,10.);
#98=VECTOR('',#347,10.);
#99=VECTOR('',#348,10.);
#100=VECTOR('',#351,10.);
#101=VECTOR('',#352,10.);
#102=VECTOR('',#355,10.);
#103=VECTOR('',#356,10.);
#104=VECTOR('',#357,10.);
#105=VECTOR('',#360,10.);
#106=VECTOR('',#361,10.);
#107=VECTOR('',#366,10.);
#108=VECTOR('',#367,10.);
#109=VECTOR('',#368,10.);
#110=VECTOR('',#369,10.);
#111=VECTOR('',#372,10.);
#112=VECTOR('',#373,10.);
#113=VECTOR('',#374,10.);
#114=VECTOR('',#377,10.);
#115=VECTOR('',#378,10.);
#116=VECTOR('',#379,10.);
#117=VECTOR('',#382,10.);
#118=VECTOR('',#383,10.);
#119=VECTOR('',#386,10.);
#120=VECTOR('',#387,10.);
#121=VECTOR('',#388,10.);
#122=VECTOR('',#391,10.);
#123=VECTOR('',#392,10.);
#124=VECTOR('',#397,10.);
#125=VECTOR('',#398,10.);
#126=VECTOR('',#401,10.);
#127=VERTEX_POINT('',#406);
#128=VERTEX_POINT('',#407);
#129=VERTEX_POINT('',#409);
#130=VERTEX_POINT('',#411);
#131=VERTEX_POINT('',#415);
#132=VERTEX_POINT('',#417);
#133=VERTEX_POINT('',#419);
#134=VERTEX_POINT('',#421);
#135=VERTEX_POINT('',#425);
#136=VERTEX_POINT('',#429);
#137=VERTEX_POINT('',#433);
#138=VERTEX_POINT('',#435);
#139=VERTEX_POINT('',#443);
#140=VERTEX_POINT('',#444);
#141=VERTEX_POINT('',#446);
#142=VERTEX_POINT('',#448);
#143=VERTEX_POINT('',#452);
#144=VERTEX_POINT('',#454);
#145=VERTEX_POINT('',#458);
#146=VERTEX_POINT('',#460);
#147=VERTEX_POINT('',#467);
#148=VERTEX_POINT('',#469);
#149=VERTEX_POINT('',#473);
#150=VERTEX_POINT('',#478);
#151=EDGE_CURVE('',#127,#128,#51,.T.);
#152=EDGE_CURVE('',#128,#129,#52,.T.);
#153=EDGE_CURVE('',#129,#130,#53,.T.);
#154=EDGE_CURVE('',#130,#127,#54,.T.);
#155=EDGE_CURVE('',#131,#128,#55,.T.);
#156=EDGE_CURVE('',#132,#131,#56,.T.);
#157=EDGE_CURVE('',#133,#132,#57,.T.);
#158=EDGE_CURVE('',#133,#134,#58,.T.);
#159=EDGE_CURVE('',#134,#129,#59,.T.);
#160=EDGE_CURVE('',#135,#127,#60,.T.);
#161=EDGE_CURVE('',#131,#135,#61,.T.);
#162=EDGE_CURVE('',#136,#135,#62,.T.);
#163=EDGE_CURVE('',#132,#136,#63,.T.);
#164=EDGE_CURVE('',#137,#130,#64,.T.);
#165=EDGE_CURVE('',#138,#137,#65,.T.);
#166=EDGE_CURVE('',#136,#138,#66,.T.);
#167=EDGE_CURVE('',#138,#133,#67,.T.);
#168=EDGE_CURVE('',#134,#137,#68,.T.);
#169=EDGE_CURVE('',#139,#140,#69,.T.);
#170=EDGE_CURVE('',#140,#141,#70,.T.);
#171=EDGE_CURVE('',#141,#142,#71,.T.);
#172=EDGE_CURVE('',#139,#142,#72,.T.);
#173=EDGE_CURVE('',#140,#143,#73,.T.);
#174=EDGE_CURVE('',#143,#144,#74,.T.);
#175=EDGE_CURVE('',#144,#141,#75,.T.);
#176=EDGE_CURVE('',#143,#145,#76,.T.);
#177=EDGE_CURVE('',#145,#146,#77,.T.);
#178=EDGE_CURVE('',#146,#144,#78,.T.);
#179=EDGE_CURVE('',#142,#146,#79,.T.);
#180=EDGE_CURVE('',#145,#139,#80,.T.);
#181=EDGE_CURVE('',#147,#142,#81,.T.);
#182=EDGE_CURVE('',#147,#148,#82,.T.);
#183=EDGE_CURVE('',#148,#146,#83,.T.);
#184=EDGE_CURVE('',#149,#141,#84,.T.);
#185=EDGE_CURVE('',#149,#147,#85,.T.);
#186=EDGE_CURVE('',#148,#150,#86,.T.);
#187=EDGE_CURVE('',#150,#144,#87,.T.);
#188=EDGE_CURVE('',#150,#149,#88,.T.);
#189=ORIENTED_EDGE('',*,*,#151,.T.);
#190=ORIENTED_EDGE('',*,*,#152,.T.);
#191=ORIENTED_EDGE('',*,*,#153,.T.);
#192=ORIENTED_EDGE('',*,*,#154,.T.);
#193=ORIENTED_EDGE('',*,*,#155,.F.);
#194=ORIENTED_EDGE('',*,*,#156,.F.);
#195=ORIENTED_EDGE('',*,*,#157,.F.);
#196=ORIENTED_EDGE('',*,*,#158,.T.);
#197=ORIENTED_EDGE('',*,*,#159,.T.);
#198=ORIENTED_EDGE('',*,*,#152,.F.);
#199=ORIENTED_EDGE('',*,*,#160,.F.);
#200=ORIENTED_EDGE('',*,*,#161,.F.);
#201=ORIENTED_EDGE('',*,*,#155,.T.);
#202=ORIENTED_EDGE('',*,*,#151,.F.);
#203=ORIENTED_EDGE('',*,*,#161,.T.);
#204=ORIENTED_EDGE('',*,*,#162,.F.);
#205=ORIENTED_EDGE('',*,*,#163,.F.);
#206=ORIENTED_EDGE('',*,*,#156,.T.);
#207=ORIENTED_EDGE('',*,*,#164,.F.);
#208=ORIENTED_EDGE('',*,*,#165,.F.);
#209=ORIENTED_EDGE('',*,*,#166,.F.);
#210=ORIENTED_EDGE('',*,*,#162,.T.);
#211=ORIENTED_EDGE('',*,*,#160,.T.);
#212=ORIENTED_EDGE('',*,*,#154,.F.);
#213=ORIENTED_EDGE('',*,*,#167,.F.);
#214=ORIENTED_EDGE('',*,*,#165,.T.);
#215=ORIENTED_EDGE('',*,*,#168,.F.);
#216=ORIENTED_EDGE('',*,*,#158,.F.);
#217=ORIENTED_EDGE('',*,*,#159,.F.);
#218=ORIENTED_EDGE('',*,*,#168,.T.);
#219=ORIENTED_EDGE('',*,*,#164,.T.);
#220=ORIENTED_EDGE('',*,*,#153,.F.);
#221=ORIENTED_EDGE('',*,*,#169,.T.);
#222=ORIENTED_EDGE('',*,*,#170,.T.);
#223=ORIENTED_EDGE('',*,*,#171,.T.);
#224=ORIENTED_EDGE('',*,*,#172,.F.);
#225=ORIENTED_EDGE('',*,*,#173,.T.);
#226=ORIENTED_EDGE('',*,*,#174,.T.);
#227=ORIENTED_EDGE('',*,*,#175,.T.);
#228=ORIENTED_EDGE('',*,*,#170,.F.);
#229=ORIENTED_EDGE('',*,*,#176,.T.);
#230=ORIENTED_EDGE('',*,*,#177,.T.);
#231=ORIENTED_EDGE('',*,*,#178,.T.);
#232=ORIENTED_EDGE('',*,*,#174,.F.);
#233=ORIENTED_EDGE('',*,*,#179,.T.);
#234=ORIENTED_EDGE('',*,*,#177,.F.);
#235=ORIENTED_EDGE('',*,*,#180,.T.);
#236=ORIENTED_EDGE('',*,*,#172,.T.);
#237=ORIENTED_EDGE('',*,*,#179,.F.);
#238=ORIENTED_EDGE('',*,*,#181,.F.);
#239=ORIENTED_EDGE('',*,*,#182,.T.);
#240=ORIENTED_EDGE('',*,*,#183,.T.);
#241=ORIENTED_EDGE('',*,*,#171,.F.);
#242=ORIENTED_EDGE('',*,*,#184,.F.);
#243=ORIENTED_EDGE('',*,*,#185,.T.);
#244=ORIENTED_EDGE('',*,*,#181,.T.);
#245=ORIENTED_EDGE('',*,*,#169,.F.);
#246=ORIENTED_EDGE('',*,*,#180,.F.);
#247=ORIENTED_EDGE('',*,*,#176,.F.);
#248=ORIENTED_EDGE('',*,*,#173,.F.);
#249=ORIENTED_EDGE('',*,*,#157,.T.);
#250=ORIENTED_EDGE('',*,*,#163,.T.);
#251=ORIENTED_EDGE('',*,*,#166,.T.);
#252=ORIENTED_EDGE('',*,*,#167,.T.);
#253=ORIENTED_EDGE('',*,*,#178,.F.);
#254=ORIENTED_EDGE('',*,*,#183,.F.);
#255=ORIENTED_EDGE('',*,*,#186,.T.);
#256=ORIENTED_EDGE('',*,*,#187,.T.);
#257=ORIENTED_EDGE('',*,*,#175,.F.);
#258=ORIENTED_EDGE('',*,*,#187,.F.);
#259=ORIENTED_EDGE('',*,*,#188,.T.);
#260=ORIENTED_EDGE('',*,*,#184,.T.);
#261=ORIENTED_EDGE('',*,*,#188,.F.);
#262=ORIENTED_EDGE('',*,*,#186,.F.);
#263=ORIENTED_EDGE('',*,*,#182,.F.);
#264=ORIENTED_EDGE('',*,*,#185,.F.);
#265=PLANE('',#313);
#266=PLANE('',#314);
#267=PLANE('',#315);
#268=PLANE('',#316);
#269=PLANE('',#317);
#270=PLANE('',#318);
#271=PLANE('',#319);
#272=PLANE('',#320);
#273=PLANE('',#321);
#274=PLANE('',#322);
#275=PLANE('',#323);
#276=PLANE('',#324);
#277=PLANE('',#325);
#278=PLANE('',#326);
#279=PLANE('',#327);
#280=PLANE('',#328);
#281=PLANE('',#329);
#282=ADVANCED_FACE('',(#16),#265,.T.);
#283=ADVANCED_FACE('',(#17),#266,.T.);
#284=ADVANCED_FACE('',(#18),#267,.T.);
#285=ADVANCED_FACE('',(#19),#268,.T.);
#286=ADVANCED_FACE('',(#20),#269,.T.);
#287=ADVANCED_FACE('',(#21),#270,.T.);
#288=ADVANCED_FACE('',(#22),#271,.T.);
#289=ADVANCED_FACE('',(#23),#272,.T.);
#290=ADVANCED_FACE('',(#24),#273,.T.);
#291=ADVANCED_FACE('',(#25),#274,.T.);
#292=ADVANCED_FACE('',(#26),#275,.T.);
#293=ADVANCED_FACE('',(#27),#276,.T.);
#294=ADVANCED_FACE('',(#28),#277,.T.);
#295=ADVANCED_FACE('',(#29,#15),#278,.T.);
#296=ADVANCED_FACE('',(#30),#279,.T.);
#297=ADVANCED_FACE('',(#31),#280,.T.);
#298=ADVANCED_FACE('',(#32),#281,.F.);
#299=CLOSED_SHELL('',(#282,#283,#284,#285,#286,#287,#288,#289,#290,#291,
#292,#293,#294,#295,#296,#297,#298));
#300=DERIVED_UNIT_ELEMENT(#302,1.);
#301=DERIVED_UNIT_ELEMENT(#489,-3.);
#302=(
MASS_UNIT()
NAMED_UNIT(*)
SI_UNIT(.KILO.,.GRAM.)
);
#303=DERIVED_UNIT((#300,#301));
#304=MEASURE_REPRESENTATION_ITEM('density measure',
POSITIVE_RATIO_MEASURE(7850.),#303);
#305=PROPERTY_DEFINITION_REPRESENTATION(#310,#307);
#306=PROPERTY_DEFINITION_REPRESENTATION(#311,#308);
#307=REPRESENTATION('material name',(#309),#486);
#308=REPRESENTATION('density',(#304),#486);
#309=DESCRIPTIVE_REPRESENTATION_ITEM('Steel','Steel');
#310=PROPERTY_DEFINITION('material property','material name',#496);
#311=PROPERTY_DEFINITION('material property','density of part',#496);
#312=AXIS2_PLACEMENT_3D('',#404,#330,#331);
#313=AXIS2_PLACEMENT_3D('',#405,#332,#333);
#314=AXIS2_PLACEMENT_3D('',#414,#338,#339);
#315=AXIS2_PLACEMENT_3D('',#424,#345,#346);
#316=AXIS2_PLACEMENT_3D('',#428,#349,#350);
#317=AXIS2_PLACEMENT_3D('',#432,#353,#354);
#318=AXIS2_PLACEMENT_3D('',#438,#358,#359);
#319=AXIS2_PLACEMENT_3D('',#441,#362,#363);
#320=AXIS2_PLACEMENT_3D('',#442,#364,#365);
#321=AXIS2_PLACEMENT_3D('',#451,#370,#371);
#322=AXIS2_PLACEMENT_3D('',#457,#375,#376);
#323=AXIS2_PLACEMENT_3D('',#463,#380,#381);
#324=AXIS2_PLACEMENT_3D('',#466,#384,#385);
#325=AXIS2_PLACEMENT_3D('',#472,#389,#390);
#326=AXIS2_PLACEMENT_3D('',#476,#393,#394);
#327=AXIS2_PLACEMENT_3D('',#477,#395,#396);
#328=AXIS2_PLACEMENT_3D('',#481,#399,#400);
#329=AXIS2_PLACEMENT_3D('',#483,#402,#403);
#330=DIRECTION('axis',(0.,0.,1.));
#331=DIRECTION('refdir',(1.,0.,0.));
#332=DIRECTION('center_axis',(0.,1.,0.));
#333=DIRECTION('ref_axis',(0.,0.,1.));
#334=DIRECTION('',(-1.,0.,0.));
#335=DIRECTION('',(0.,0.,1.));
#336=DIRECTION('',(1.,0.,0.));
#337=DIRECTION('',(0.,0.,-1.));
#338=DIRECTION('center_axis',(-1.,0.,0.));
#339=DIRECTION('ref_axis',(0.,-1.,0.));
#340=DIRECTION('',(0.,1.,0.));
#341=DIRECTION('',(0.,0.,1.));
#342=DIRECTION('',(0.,1.,0.));
#343=DIRECTION('',(0.,0.,1.));
#344=DIRECTION('',(0.,1.,0.));
#345=DIRECTION('center_axis',(0.,0.,-1.));
#346=DIRECTION('ref_axis',(-1.,0.,0.));
#347=DIRECTION('',(0.,1.,0.));
#348=DIRECTION('',(1.,0.,0.));
#349=DIRECTION('center_axis',(0.,1.,0.));
#350=DIRECTION('ref_axis',(-1.,0.,0.));
#351=DIRECTION('',(0.,0.,1.));
#352=DIRECTION('',(1.,0.,0.));
#353=DIRECTION('center_axis',(1.,0.,0.));
#354=DIRECTION('ref_axis',(0.,1.,0.));
#355=DIRECTION('',(0.,1.,0.));
#356=DIRECTION('',(0.,0.,1.));
#357=DIRECTION('',(0.,-1.,0.));
#358=DIRECTION('center_axis',(0.,-1.,0.));
#359=DIRECTION('ref_axis',(1.,0.,0.));
#360=DIRECTION('',(-1.,0.,0.));
#361=DIRECTION('',(1.,0.,0.));
#362=DIRECTION('center_axis',(0.,0.,1.));
#363=DIRECTION('ref_axis',(1.,0.,0.));
#364=DIRECTION('center_axis',(0.,0.707106781186548,0.707106781186548));
#365=DIRECTION('ref_axis',(1.,0.,0.));
#366=DIRECTION('',(1.,0.,0.));
#367=DIRECTION('',(0.577350269189626,0.577350269189626,-0.577350269189626));
#368=DIRECTION('',(-1.,0.,0.));
#369=DIRECTION('',(-0.577350269189626,0.577350269189626,-0.577350269189626));
#370=DIRECTION('center_axis',(0.707106781186548,0.,0.707106781186548));
#371=DIRECTION('ref_axis',(0.707106781186548,0.,-0.707106781186548));
#372=DIRECTION('',(0.,-1.,0.));
#373=DIRECTION('',(0.577350269189626,-0.577350269189626,-0.577350269189626));
#374=DIRECTION('',(0.,1.,0.));
#375=DIRECTION('center_axis',(0.,-0.707106781186548,0.707106781186548));
#376=DIRECTION('ref_axis',(1.,0.,0.));
#377=DIRECTION('',(-1.,0.,0.));
#378=DIRECTION('',(-0.577350269189626,-0.577350269189626,-0.577350269189626));
#379=DIRECTION('',(1.,0.,0.));
#380=DIRECTION('center_axis',(-0.707106781186548,0.,0.707106781186548));
#381=DIRECTION('ref_axis',(0.707106781186548,0.,0.707106781186548));
#382=DIRECTION('',(0.,-1.,0.));
#383=DIRECTION('',(0.,1.,0.));
#384=DIRECTION('center_axis',(-1.,0.,0.));
#385=DIRECTION('ref_axis',(0.,-1.,0.));
#386=DIRECTION('',(0.,0.,1.));
#387=DIRECTION('',(0.,-1.,0.));
#388=DIRECTION('',(0.,0.,1.));
#389=DIRECTION('center_axis',(0.,1.,0.));
#390=DIRECTION('ref_axis',(-1.,0.,0.));
#391=DIRECTION('',(0.,0.,1.));
#392=DIRECTION('',(-1.,0.,0.));
#393=DIRECTION('center_axis',(0.,0.,1.));
#394=DIRECTION('ref_axis',(1.,0.,0.));
#395=DIRECTION('center_axis',(0.,-1.,0.));
#396=DIRECTION('ref_axis',(1.,0.,0.));
#397=DIRECTION('',(1.,0.,0.));
#398=DIRECTION('',(0.,0.,1.));
#399=DIRECTION('center_axis',(1.,0.,0.));
#400=DIRECTION('ref_axis',(0.,1.,0.));
#401=DIRECTION('',(0.,1.,0.));
#402=DIRECTION('center_axis',(0.,0.,1.));
#403=DIRECTION('ref_axis',(1.,0.,0.));
#404=CARTESIAN_POINT('',(0.,0.,0.));
#405=CARTESIAN_POINT('Origin',(-50.,150.,70.));
#406=CARTESIAN_POINT('',(-25.,150.,60.));
#407=CARTESIAN_POINT('',(-75.,150.,60.));
#408=CARTESIAN_POINT('',(-37.5,150.,60.));
#409=CARTESIAN_POINT('',(-75.,150.,80.));
#410=CARTESIAN_POINT('',(-75.,150.,45.));
#411=CARTESIAN_POINT('',(-25.,150.,80.));
#412=CARTESIAN_POINT('',(-50.,150.,80.));
#413=CARTESIAN_POINT('',(-25.,150.,45.));
#414=CARTESIAN_POINT('Origin',(-75.,-20.,20.));
#415=CARTESIAN_POINT('',(-75.,-20.,60.));
#416=CARTESIAN_POINT('',(-75.,130.,60.));
#417=CARTESIAN_POINT('',(-75.,-20.,20.));
#418=CARTESIAN_POINT('',(-75.,-20.,20.));
#419=CARTESIAN_POINT('',(-75.,-40.,20.));
#420=CARTESIAN_POINT('',(-75.,-30.,20.));
#421=CARTESIAN_POINT('',(-75.,-40.,80.));
#422=CARTESIAN_POINT('',(-75.,-40.,20.));
#423=CARTESIAN_POINT('',(-75.,-20.,80.));
#424=CARTESIAN_POINT('Origin',(-25.,-20.,60.));
#425=CARTESIAN_POINT('',(-25.,-20.,60.));
#426=CARTESIAN_POINT('',(-25.,130.,60.));
#427=CARTESIAN_POINT('',(-25.,-20.,60.));
#428=CARTESIAN_POINT('Origin',(-25.,-20.,20.));
#429=CARTESIAN_POINT('',(-25.,-20.,20.));
#430=CARTESIAN_POINT('',(-25.,-20.,20.));
#431=CARTESIAN_POINT('',(-37.5,-20.,20.));
#432=CARTESIAN_POINT('Origin',(-25.,-40.,20.));
#433=CARTESIAN_POINT('',(-25.,-40.,80.));
#434=CARTESIAN_POINT('',(-25.,-20.,80.));
#435=CARTESIAN_POINT('',(-25.,-40.,20.));
#436=CARTESIAN_POINT('',(-25.,-40.,20.));
#437=CARTESIAN_POINT('',(-25.,-40.,20.));
#438=CARTESIAN_POINT('Origin',(-75.,-40.,20.));
#439=CARTESIAN_POINT('',(-62.5,-40.,20.));
#440=CARTESIAN_POINT('',(-25.,-40.,80.));
#441=CARTESIAN_POINT('Origin',(-50.,-30.,80.));
#442=CARTESIAN_POINT('Origin',(-25.,-5.,15.));
#443=CARTESIAN_POINT('',(-90.,-10.,20.));
#444=CARTESIAN_POINT('',(-10.,-10.,20.));
#445=CARTESIAN_POINT('',(-25.,-10.,20.));
#446=CARTESIAN_POINT('',(0.,0.,10.));
#447=CARTESIAN_POINT('',(-10.,-10.,20.));
#448=CARTESIAN_POINT('',(-100.,0.,10.));
#449=CARTESIAN_POINT('',(-25.,0.,10.));
#450=CARTESIAN_POINT('',(-90.,-10.,20.));
#451=CARTESIAN_POINT('Origin',(-5.,-60.,15.));
#452=CARTESIAN_POINT('',(-10.,-70.,20.));
#453=CARTESIAN_POINT('',(-10.,-60.,20.));
#454=CARTESIAN_POINT('',(0.,-80.,10.));
#455=CARTESIAN_POINT('',(-10.,-70.,20.));
#456=CARTESIAN_POINT('',(0.,-60.,10.));
#457=CARTESIAN_POINT('Origin',(-75.,-75.,15.));
#458=CARTESIAN_POINT('',(-90.,-70.,20.));
#459=CARTESIAN_POINT('',(-75.,-70.,20.));
#460=CARTESIAN_POINT('',(-100.,-80.,10.));
#461=CARTESIAN_POINT('',(-90.,-70.,20.));
#462=CARTESIAN_POINT('',(-75.,-80.,10.));
#463=CARTESIAN_POINT('Origin',(-95.,-20.,15.));
#464=CARTESIAN_POINT('',(-100.,-20.,10.));
#465=CARTESIAN_POINT('',(-90.,-20.,20.));
#466=CARTESIAN_POINT('Origin',(-100.,0.,0.));
#467=CARTESIAN_POINT('',(-100.,0.,0.));
#468=CARTESIAN_POINT('',(-100.,0.,0.));
#469=CARTESIAN_POINT('',(-100.,-80.,0.));
#470=CARTESIAN_POINT('',(-100.,0.,0.));
#471=CARTESIAN_POINT('',(-100.,-80.,0.));
#472=CARTESIAN_POINT('Origin',(0.,0.,0.));
#473=CARTESIAN_POINT('',(0.,0.,0.));
#474=CARTESIAN_POINT('',(0.,0.,0.));
#475=CARTESIAN_POINT('',(0.,0.,0.));
#476=CARTESIAN_POINT('Origin',(-50.,-40.,20.));
#477=CARTESIAN_POINT('Origin',(-100.,-80.,0.));
#478=CARTESIAN_POINT('',(0.,-80.,0.));
#479=CARTESIAN_POINT('',(-100.,-80.,0.));
#480=CARTESIAN_POINT('',(0.,-80.,0.));
#481=CARTESIAN_POINT('Origin',(0.,-80.,0.));
#482=CARTESIAN_POINT('',(0.,-80.,0.));
#483=CARTESIAN_POINT('Origin',(-50.,-40.,0.));
#484=UNCERTAINTY_MEASURE_WITH_UNIT(LENGTH_MEASURE(0.01),#488,
'DISTANCE_ACCURACY_VALUE',
'Maximum model space distance between geometric entities at asserted c
onnectivities');
#485=UNCERTAINTY_MEASURE_WITH_UNIT(LENGTH_MEASURE(0.01),#488,
'DISTANCE_ACCURACY_VALUE',
'Maximum model space distance between geometric entities at asserted c
onnectivities');
#486=(
GEOMETRIC_REPRESENTATION_CONTEXT(3)
GLOBAL_UNCERTAINTY_ASSIGNED_CONTEXT((#484))
GLOBAL_UNIT_ASSIGNED_CONTEXT((#488,#490,#491))
REPRESENTATION_CONTEXT('','3D')
);
#487=(
GEOMETRIC_REPRESENTATION_CONTEXT(3)
GLOBAL_UNCERTAINTY_ASSIGNED_CONTEXT((#485))
GLOBAL_UNIT_ASSIGNED_CONTEXT((#488,#490,#491))
REPRESENTATION_CONTEXT('','3D')
);
#488=(
LENGTH_UNIT()
NAMED_UNIT(*)
SI_UNIT(.MILLI.,.METRE.)
);
#489=(
LENGTH_UNIT()
NAMED_UNIT(*)
SI_UNIT($,.METRE.)
);
#490=(
NAMED_UNIT(*)
PLANE_ANGLE_UNIT()
SI_UNIT($,.RADIAN.)
);
#491=(
NAMED_UNIT(*)
SI_UNIT($,.STERADIAN.)
SOLID_ANGLE_UNIT()
);
#492=SHAPE_DEFINITION_REPRESENTATION(#493,#494);
#493=PRODUCT_DEFINITION_SHAPE('',$,#496);
#494=SHAPE_REPRESENTATION('',(#312),#486);
#495=PRODUCT_DEFINITION_CONTEXT('part definition',#500,'design');
#496=PRODUCT_DEFINITION('2026-08-09-10-39-58-386',
'ultrasonic_sensor_holder_frame',#497,#495);
#497=PRODUCT_DEFINITION_FORMATION('',$,#502);
#498=PRODUCT_RELATED_PRODUCT_CATEGORY('ultrasonic_sensor_holder_frame',
'ultrasonic_sensor_holder_frame',(#502));
#499=APPLICATION_PROTOCOL_DEFINITION('international standard',
'automotive_design',2009,#500);
#500=APPLICATION_CONTEXT(
'Core Data for Automotive Mechanical Design Process');
#501=PRODUCT_CONTEXT('part definition',#500,'mechanical');
#502=PRODUCT('2026-08-09-10-39-58-386','ultrasonic_sensor_holder_frame',
$,(#501));
#503=PRESENTATION_STYLE_ASSIGNMENT((#504));
#504=SURFACE_STYLE_USAGE(.BOTH.,#505);
#505=SURFACE_SIDE_STYLE('',(#506));
#506=SURFACE_STYLE_FILL_AREA(#507);
#507=FILL_AREA_STYLE('Steel - Satin',(#508));
#508=FILL_AREA_STYLE_COLOUR('Steel - Satin',#509);
#509=COLOUR_RGB('Steel - Satin',0.627450980392157,0.627450980392157,0.627450980392157);
ENDSEC;
END-ISO-10303-21;
